<svg width="621" height="450" viewBox="0 0 621 450" fill="none" xmlns="http://www.w3.org/2000/svg">
<path d="M106.59 91.213C100.349 88.4526 92.605 83.5675 92.4802 73.9364C92.4029 67.4008 95.3405 61.4003 96.7329 55.2817C99.4097 43.5107 95.7902 30.5591 89.764 21.2896C83.5795 11.7639 74.5559 4.99639 64.9604 2.89802C60.2476 1.85805 55.3824 1.98566 50.7755 3.49354C46.1498 5.002 41.7345 7.85661 37.6546 10.9262C28.5769 17.7822 20.5301 27.0031 14.0557 37.5395C7.69788 47.8944 2.57616 59.9432 0.718939 73.0058C-0.130959 79.0363 -0.295307 85.354 0.595372 91.4371C1.67393 98.7485 4.55912 105.505 8.32376 111.202C16.03 122.852 27.4834 130.695 39.0561 134.132C50.5996 137.534 62.4254 133.868 70.7203 123.227C75.0531 117.67 77.9271 110.817 80.7154 103.931C82.1318 100.446 83.8137 96.7271 86.9523 95.4667C90.0444 94.2195 93.2417 95.4965 96.1194 97.08C98.5962 98.4624 100.952 100.181 103.428 101.54C103.868 101.787 104.285 101.62 104.552 101.113C105.731 98.7863 107.143 96.6896 107.87 94.0328C108.207 92.7645 106.585 92.281 106.248 93.5493C105.589 95.9904 104.165 97.9807 103.084 100.126C103.465 99.984 103.827 99.8423 104.208 99.6999C99.5908 97.1737 95.0147 92.9139 89.8063 92.8861C83.3291 92.8621 80.6975 99.3396 78.1388 105.744C75.4046 112.557 72.1171 119.102 67.5054 124.146C63.1027 128.958 57.6338 132.095 51.8241 132.999C39.9245 134.864 27.1376 128.297 17.6342 119.361C12.776 114.79 8.46812 109.157 5.52802 102.449C2.77974 96.1748 1.59249 89.3059 1.66686 82.196C1.7947 69.1397 5.89603 56.6124 11.4046 45.845C17.1798 34.5708 24.7924 24.6753 33.4475 16.9069C41.1971 9.96169 50.168 3.91587 59.9848 4.33429C69.764 4.75389 79.3236 10.603 86.191 19.4073C92.8536 27.9688 97.5505 40.8038 95.4653 52.8649C94.4034 59.0325 91.706 64.5865 90.958 70.8749C90.1522 77.7347 92.7759 83.93 97.2487 87.8845C99.9729 90.2916 103.067 91.8803 106.182 93.2428C107.249 93.708 107.6 91.6562 106.59 91.213Z" fill="#D1D1D1"/>
<path d="M100.777 91.6814C97.2512 89.6409 93.5776 87.9711 90.199 85.5361C88.553 84.3586 86.9941 82.9657 85.6502 81.2589C84.1495 79.3207 83.1408 76.9419 82.1231 74.5752C78.9456 67.0772 77.231 58.7421 73.6679 51.4924C67.0119 37.9826 54.6315 29.5186 42.3119 27.9524C35.4332 27.0794 28.4914 28.4296 22.3187 32.2842C21.3634 32.881 22.2508 34.6611 23.1971 34.0763C34.3581 27.1247 47.9903 29.0635 58.7632 36.6915C64.4943 40.7547 69.4715 46.4954 72.799 53.6933C76.116 60.8562 77.7958 68.9679 80.9661 76.2298C82.9187 80.7059 85.195 84.1322 88.6848 86.8355C92.2508 89.5837 96.2265 91.3386 100.009 93.5248C100.981 94.0853 101.759 92.2535 100.777 91.6814Z" fill="#D1D1D1"/>
<path d="M81.9078 85.7019C62.8152 81.7994 42.4743 81.2252 24.8762 69.7742C19.769 66.4543 15.1117 62.2092 11.1095 57.0089C10.3674 56.0381 9.24185 57.5522 9.98393 58.5231C24.4487 77.2659 45.6744 81.6463 65.2061 84.8844C70.6614 85.7915 76.1236 86.6155 81.557 87.7244C82.5952 87.9524 82.9549 85.9178 81.9078 85.7019Z" fill="#D1D1D1"/>
<path d="M72.3918 72.6216C60.4433 53.9279 41.1619 44.1144 22.6714 42.1129C21.6096 41.9923 21.6827 44.0821 22.7349 44.1912C40.5675 46.1186 59.4563 55.6488 70.982 73.6819C71.6416 74.737 73.0514 73.6767 72.3918 72.6216Z" fill="#D1D1D1"/>
<path d="M56.0907 67.9475C48.4012 66.5308 41.1957 62.2486 34.7165 56.8911C33.8224 56.1501 33.0541 57.9954 33.9482 58.7364C40.5329 64.1735 47.9098 68.545 55.7311 69.9813C56.7771 70.1735 57.1554 68.1391 56.0907 67.9475Z" fill="#D1D1D1"/>
<path d="M75.7383 94.2409C67.5191 97.2436 59.0576 99.6855 50.4165 99.3149C41.1644 98.9041 32.6183 94.8837 24.426 89.5497C18.7125 85.8319 12.8926 81.3951 9.45907 74.3146C8.89816 73.148 7.48677 74.2339 8.04767 75.4005C11.0303 81.5359 15.7295 85.83 20.6111 89.3369C25.1564 92.5819 29.9269 95.5239 34.8611 97.6794C43.209 101.351 51.959 102.215 60.6458 100.702C65.9359 99.7675 71.1113 98.1501 76.2225 96.2742C77.2425 95.8873 76.7591 93.8776 75.7383 94.2409Z" fill="#D1D1D1"/>
<path d="M73.0597 102.549C67.137 110.911 59.3278 116.831 50.4959 118.777C40.4511 120.974 30.2285 117.961 21.9917 110.182C17.0222 105.477 12.7796 99.6713 8.2686 94.3006C7.48929 93.3767 6.35222 94.8817 7.14128 95.8171C15.5301 105.808 23.4723 117.164 35.2217 120.366C44.2443 122.823 53.6661 121.439 61.8445 116.231C66.5783 113.216 70.7583 108.973 74.2871 104.004C74.9884 102.986 73.7707 101.543 73.0597 102.549Z" fill="#D1D1D1"/>
<path d="M46.8642 108.603C40.9891 108.75 35.0682 107.088 30.3747 102.322C29.5423 101.472 28.4164 102.986 29.2488 103.836C34.2911 108.971 40.585 110.87 46.9188 110.696C47.9965 110.675 47.9322 108.57 46.8642 108.603Z" fill="#D1D1D1"/>
<path d="M61.7722 91.0271C54.6047 90.8354 47.541 89.1239 40.5769 86.9827C39.5345 86.6597 39.1744 88.697 40.2167 89.02C47.3136 91.2044 54.528 92.9349 61.8268 93.1226C62.907 93.1482 62.8434 91.0649 61.7722 91.0271Z" fill="#D1D1D1"/>
<path d="M25.2753 80.3125C21.5963 78.1586 17.9653 76.0386 15.225 72.1306C14.511 71.1249 13.3871 72.6367 14.1011 73.6423C16.9392 77.6891 20.7235 79.9225 24.5265 82.1552C25.4797 82.7163 26.2569 80.8845 25.2753 80.3125Z" fill="#D1D1D1"/>
<path d="M23.1091 56.2903C19.6604 54.4342 16.3859 52.1468 12.9281 50.3028C11.9469 49.7774 11.1787 51.6228 12.1599 52.1482C15.6086 54.0043 18.8831 56.2916 22.3408 58.1357C23.331 58.6489 24.1 56.8272 23.1091 56.2903Z" fill="#D1D1D1"/>
<path d="M88.6517 64.9767C86.7036 55.1151 85.2998 44.6933 80.227 36.4054C74.8885 27.6887 66.9922 21.3314 58.5904 18.6516C53.7043 17.0908 48.6387 16.705 43.6462 17.1793C42.5825 17.2832 42.6459 19.3602 43.7097 19.2563C54.9917 18.1847 65.6397 22.094 74.3051 31.5695C78.2358 35.8649 81.2306 41.0754 83.0926 47.1952C84.8928 53.128 85.8429 59.4179 87.0691 65.5575C87.3339 66.8722 88.9068 66.28 88.6517 64.9767Z" fill="#D1D1D1"/>
<path d="M89.0714 36.9916C86.8941 32.1379 84.7235 27.2015 81.789 22.9733C78.7957 18.6525 75.0363 15.583 70.7103 13.8647C69.6973 13.4595 69.3385 15.4888 70.3514 15.8939C74.5452 17.5692 78.0901 20.6572 80.9408 24.8998C83.6341 28.8876 85.6279 33.5463 87.6644 38.0739C88.1959 39.2493 89.594 38.1791 89.0714 36.9916Z" fill="#D1D1D1"/>
<path d="M66.5727 416.768C69.2398 406.085 68.9177 392.881 65.8278 382.295C63.6962 375.009 58.8594 365.498 51.6221 367.46C45.2839 369.189 42.6969 378.787 42.8384 386.074C43.0074 394.259 44.9227 402.941 48.3257 410.004C50.0014 413.485 52.2578 416.907 55.2415 418.714C58.3738 420.618 61.6639 420.271 64.7319 418.48C66.4011 417.509 64.8672 414.432 63.2135 415.382C52.2121 421.77 46.6888 398.78 45.862 389.186C45.3338 383.014 45.9948 374.987 50.8285 371.671C56.3273 367.885 61.095 376.723 62.7503 382.186C65.9179 392.668 66.4334 405.315 63.7818 415.977C63.2335 418.159 66.0257 418.991 66.5727 416.768Z" fill="#E1D4DB"/>
<path d="M64.316 415.992C60.7805 408.697 59.1178 400.283 57.27 392.161C56.765 389.912 54.0168 390.936 54.5372 393.164C56.4583 401.569 58.2434 410.285 61.9 417.841C62.8495 419.831 65.2979 417.981 64.316 415.992Z" fill="#E1D4DB"/>
<path d="M44.8154 425.761C40.3918 421.735 35.8763 417.875 31.177 414.348C25.8154 410.31 19.8275 405.884 13.5969 404.629C11.4007 404.187 8.95855 404.161 7.08557 405.832C5.02373 407.671 4.47721 410.954 4.5538 413.992C4.66713 418.765 5.79064 423.791 8.13794 427.596C10.8257 431.961 14.6509 434.924 18.701 436.778C27.3745 440.732 39.4349 440.174 44.7503 429.457C45.7256 427.508 43.1678 425.812 42.2081 427.74C38.066 436.114 28.4752 436.535 21.6294 434.197C17.8553 432.906 14.1624 430.572 11.4337 426.983C8.97456 423.753 7.81133 419.544 7.46754 415.167C7.35936 413.742 7.3133 412.233 7.64311 410.855C7.84311 409.992 8.25619 409.224 8.64942 408.865C9.89124 407.704 11.7712 407.849 13.4815 408.266C19.0349 409.583 24.2935 413.419 29.1233 416.983C31.9687 419.099 34.7533 421.339 37.4913 423.642C38.5537 424.547 39.6161 425.453 40.6797 426.4C41.1289 426.814 41.5769 427.188 42.026 427.603C42.4249 427.958 42.7244 428.234 42.8741 428.372C44.3702 429.714 46.3282 427.122 44.8154 425.761Z" fill="#E1D4DB"/>
<path d="M42.6084 427.308C36.4409 425.929 30.5826 423.031 24.6293 420.727C22.8631 420.048 22.2429 423.556 24.0091 424.235C29.9624 426.539 35.8207 429.437 41.9882 430.816C43.7948 431.229 44.4305 427.7 42.6084 427.308Z" fill="#E1D4DB"/>
<path d="M33.4954 389.058C32.2732 379.716 30.7152 369.426 25.8309 361.829C22.8461 357.191 18.4219 352.496 13.6694 351.339C11.6353 350.852 9.51235 351.162 7.95192 352.964C6.15748 355.039 5.70701 358.275 5.60289 361.215C5.35253 368.889 9.24866 375.864 13.6779 380.723C18.5249 386.037 24.8411 390.265 31.3061 390.9C33.1367 391.067 33.0105 387.462 31.1967 387.314C26.4822 386.87 21.7874 383.896 17.9672 380.467C13.831 376.741 9.9573 371.56 8.74465 365.175C7.97595 361.161 8.27351 353.974 12.7733 354.792C16.7038 355.486 20.4123 359.49 22.9942 363.1C27.94 370.063 29.4787 380.251 30.6381 389.126C30.9337 391.401 33.791 391.332 33.4954 389.058Z" fill="#E1D4DB"/>
<path d="M31.707 386.261C27.795 381.625 24.3034 376.507 20.3914 371.87C19.054 370.285 17.1025 372.867 18.4567 374.472C22.3687 379.109 25.8603 384.227 29.7723 388.864C31.1265 390.469 33.0612 387.866 31.707 386.261Z" fill="#E1D4DB"/>
<path d="M216.055 453.011C243.222 469.196 281.05 476.019 303.037 452.395C303.639 451.755 303.48 450.542 302.928 449.762C296.968 441.497 288.008 436.671 280.015 432.607C270.467 427.735 261.143 424.324 251.11 423.493C241.861 422.723 233.78 424.355 225.764 428.919C221.744 431.192 217.93 433.918 214.192 436.735C212.531 438.001 210.858 439.292 209.208 440.6C208.049 441.516 206.455 442.237 205.784 443.753C205.388 444.647 205.755 445.718 206.45 446.307C209.49 448.995 212.872 450.713 216.055 453.011C217.816 454.271 219.212 451.181 217.43 449.906C214.247 447.608 210.865 445.889 207.835 443.243C208.06 444.108 208.286 444.974 208.5 445.798C208.951 444.779 211.331 443.59 212.261 442.866C213.813 441.65 215.387 440.45 216.95 439.275C220.327 436.75 223.78 434.315 227.406 432.276C235.139 427.896 242.892 426.481 251.814 427.269C261.127 428.089 269.734 431.29 278.597 435.746C286.307 439.598 295.115 444.243 300.88 452.228C300.84 451.337 300.811 450.487 300.771 449.595C290.177 460.963 275.278 464.385 260.657 463.577C246.092 462.778 231.095 458.043 217.408 449.889C215.615 448.837 214.218 451.926 216.055 453.011Z" fill="#DDD9DA"/>
<path d="M211.077 446.405C226.56 444.391 242.381 444.619 258.208 446.076C265.022 446.705 271.784 446.931 278.588 447.32C285.697 447.741 293.056 448.449 299.945 452.047C301.803 453.015 302.416 449.472 300.558 448.504C293.919 445.061 286.79 444.162 279.931 443.698C272.627 443.196 265.375 443.032 258.06 442.357C241.95 440.886 225.921 440.733 210.167 442.773C208.227 443.034 209.192 446.674 211.077 446.405Z" fill="#DDD9DA"/>
<path d="M291.412 451.078C275.2 454.149 258.735 457.663 241.758 454.424C239.799 454.046 239.982 457.784 241.941 458.162C259.159 461.449 275.909 457.884 292.351 454.753C294.259 454.391 293.309 450.741 291.412 451.078Z" fill="#DDD9DA"/>
<path d="M267.305 435.293C257.644 433.295 248.288 434.153 238.888 435.242C236.964 435.454 237.934 439.109 239.836 438.881C249.017 437.826 258.099 437.061 267.499 438.995C269.453 439.437 269.249 435.695 267.305 435.293Z" fill="#DDD9DA"/>
<path d="M237.36 451.142C233.256 450.299 229.177 448.881 225.05 448.483C224.225 448.391 223.58 449.259 223.63 450.254C223.669 451.273 224.415 452.132 225.252 452.2C229.379 452.597 233.458 454.016 237.562 454.858C238.387 455.016 239.032 454.016 238.982 453.087C238.91 452.01 238.174 451.325 237.36 451.142Z" fill="#DDD9DA"/>
<path d="M189.478 418.789C219.2 419.025 254.235 404.01 264.251 368.556C264.545 367.553 263.744 366.54 263.03 366.138C254.604 361.449 244.806 361.952 236.283 362.6C226.864 363.321 218.146 365.081 209.687 369.486C201.194 373.9 194.541 379.872 189.151 388.906C186.383 393.555 184.017 398.575 181.761 403.679C180.758 405.95 179.765 408.264 178.784 410.552C178.096 412.177 176.994 413.795 176.998 415.738C176.995 416.484 177.584 417.507 178.254 417.672C182.031 418.616 185.711 418.363 189.478 418.789C191.49 419.014 191.302 415.198 189.29 414.973C185.814 414.562 182.346 414.873 178.871 414.055C179.294 414.714 179.705 415.33 180.128 415.989C180.132 414.768 181.854 412.017 182.406 410.767C183.331 408.606 184.256 406.446 185.225 404.319C187.278 399.742 189.441 395.249 191.95 391.051C197.104 382.417 203.711 376.887 211.822 372.73C219.923 368.599 228.338 367.052 237.331 366.419C245.373 365.85 254.511 365.428 262.412 369.823C262.001 369.003 261.602 368.225 261.191 367.405C256.364 384.452 244.747 396.206 231.815 403.736C218.927 411.231 204.185 415.116 189.313 414.99C187.3 414.969 187.487 418.785 189.478 418.789Z" fill="#DDD9DA"/>
<path d="M182.329 415.439C195.329 404.339 209.462 395.32 224.15 387.536C230.205 384.34 236.027 380.662 241.97 377.246C247.948 373.821 254.294 370.505 261.2 370.096C263.159 369.973 262.994 366.172 261.013 366.277C247.447 367.077 236.242 376.875 224.469 383.044C209.075 391.078 194.213 400.399 180.629 412.012C179.091 413.338 180.791 416.765 182.329 415.439Z" fill="#DDD9DA"/>
<path d="M253.887 373.476C241.155 385.595 228.342 398.371 212.592 404.861C210.764 405.607 211.729 409.381 213.568 408.609C229.86 401.91 243.046 388.901 256.23 376.37C257.733 374.935 255.379 372.067 253.887 373.476Z" fill="#DDD9DA"/>
<path d="M227.401 373.09C218.283 376.652 210.534 382.713 202.807 389.131C201.243 390.442 202.946 393.874 204.51 392.563C212.001 386.342 219.525 380.317 228.374 376.824C230.215 376.098 229.243 372.364 227.401 373.09Z" fill="#DDD9DA"/>
<path d="M206.572 404.388C202.608 405.952 198.458 406.937 194.648 408.954C193.948 409.337 193.733 410.627 194.173 411.499C194.691 412.464 195.566 412.753 196.321 412.379C197.254 411.868 197.987 411.544 198.887 411.176C199.853 410.792 200.83 410.449 201.807 410.106C203.716 409.455 205.625 408.871 207.512 408.136C208.256 407.854 208.825 406.966 208.496 405.908C208.266 404.958 207.383 404.088 206.572 404.388Z" fill="#DDD9DA"/>
<path d="M586.416 48.8941C592.85 38.3466 598.805 25.9175 599.91 13.4007C600.965 1.52815 596.25 -7.81557 587.817 -12.3958C580.143 -16.5668 570.873 -17.2946 562.048 -16.9098C552.183 -16.4785 541.901 -14.5072 532.187 -10.1904C525.313 -7.12035 517.917 -2.68995 514.306 5.67066C511.143 12.9688 511.814 20.9735 513.512 27.8311C515.574 36.194 519.256 43.7007 523.314 50.6215C527.102 57.1312 531.304 63.7767 536.312 68.9449C542.753 75.5975 551.415 78.7376 560.666 74.769C571.324 70.197 578.839 59.4869 586.461 49.6342C587.484 48.3086 586.154 46.4392 585.115 47.7754C578.643 56.1511 572.418 65.2035 563.839 70.4075C556.446 74.9035 548.736 74.9438 542.345 70.6125C536.535 66.6485 532.25 60.0567 528.217 53.8211C524.299 47.7362 520.7 41.2396 517.997 34.1337C515.54 27.7047 513.491 20.2164 514.592 12.5014C515.741 4.52832 520.714 -1.03341 526.714 -4.66351C535.007 -9.70313 544.22 -12.1529 552.963 -13.4348C562.015 -14.7606 571.312 -14.9105 579.81 -12.6139C589.273 -10.0659 597.535 -3.26877 597.846 9.45349C598.175 22.6168 591.393 36.5158 584.657 47.5772C583.756 49.0717 585.508 50.3703 586.416 48.8941Z" fill="#D3CBCF"/>
<path d="M587.295 54.4784C589.204 51.8928 591.496 49.4646 594.234 48.6021C596.499 47.8911 598.721 48.4085 600.668 49.4004C605.216 51.7271 608.739 56.1061 612.52 59.6822C614.48 61.5494 616.532 63.3338 618.97 64.3896C619.168 63.5349 619.36 62.6619 619.551 61.789C608.658 60.532 594.311 64.2753 587.94 52.2213C587.234 50.8933 585.48 52.7879 586.17 54.1266C592.906 66.8484 607.764 63.1108 619.234 64.4436C620.529 64.5932 620.871 62.2852 619.831 61.8322C615.163 59.7886 611.665 55.0307 607.888 51.5203C604.236 48.1316 599.701 44.5507 594.397 45.9129C591.085 46.7653 588.228 49.5408 585.931 52.6289C584.937 53.9814 586.268 55.8524 587.295 54.4784Z" fill="#D3CBCF"/>
<path d="M587.092 54.6461C592.528 61.5694 596.595 71.1138 594.284 81.7188C594.901 81.3207 595.518 80.9225 596.135 80.5244C592.373 78.0885 589.91 73.4757 588.4 68.7418C586.89 64.0078 586.097 58.2242 587.846 52.8912C588.401 51.1709 586.277 50.4739 585.722 52.1941C583.786 58.1169 584.521 64.4318 586.141 69.7526C587.764 75.0243 590.551 80.227 594.741 82.9036C595.515 83.3911 596.361 82.7511 596.593 81.7091C599.056 70.4194 594.722 60.0367 588.953 52.6704C587.986 51.4854 586.142 53.45 587.092 54.6461Z" fill="#D3CBCF"/>
<path d="M587.014 52.5711C592.537 37.7853 607.287 30.6033 618.39 36.2067C618.306 35.4941 618.222 34.7814 618.16 34.0762C615.883 36.708 613.813 39.5789 611.53 42.1931C609.378 44.6789 606.902 47.3077 603.989 47.9403C602.598 48.2471 602.868 50.7022 604.249 50.4235C610.463 49.083 615.12 40.9261 619.492 35.8675C620.155 35.0885 619.967 34.0926 619.262 33.737C607.097 27.6141 591.041 35.9247 585.057 51.9291C584.449 53.5048 586.429 54.1542 587.014 52.5711Z" fill="#D3CBCF"/>
<path d="M591.37 11.7638C589.929 10.4855 588.039 10.2708 586.226 9.98411C585.969 9.94838 585.6 10.1667 585.397 10.3906C585.193 10.6144 585.003 10.988 584.981 11.3197C584.949 11.6804 584.997 12.0347 585.202 12.2632C585.397 12.5207 585.628 12.5963 585.924 12.6288C585.621 12.578 585.862 12.6245 585.924 12.6288C585.987 12.6332 586.056 12.6558 586.119 12.6602C586.228 12.6797 586.353 12.6884 586.462 12.7078C586.68 12.7468 586.914 12.7749 587.138 12.8322C587.534 12.9132 587.93 12.9943 588.315 13.1044C588.494 13.1466 588.662 13.2178 588.83 13.289C588.906 13.33 588.999 13.3602 589.074 13.4012C589.121 13.4163 589.167 13.4314 589.197 13.4573C589.372 13.5468 588.946 13.3268 589.121 13.4163C589.454 13.6061 589.755 13.8174 590.046 14.0577C590.469 14.4382 591.282 14.1556 591.606 13.5355C591.94 12.8864 591.839 12.1594 591.37 11.7638Z" fill="#D3CBCF"/>
<path d="M581.505 35.0447C580.465 34.8828 579.487 34.4982 578.546 34.0443C578.493 34.0108 578.447 33.9956 578.394 33.962C578.523 34.0367 578.47 34.0032 578.37 33.9544C578.248 33.8981 578.142 33.831 578.019 33.7747C577.79 33.6512 577.555 33.5094 577.343 33.3751C576.872 33.0914 576.394 32.7893 575.917 32.4873C575.439 32.1852 574.712 32.3198 574.35 33.0117C574.017 33.616 574.03 34.4953 574.561 34.8309C576.464 36.0209 578.411 37.2735 580.646 37.632C580.951 37.6831 581.196 37.6822 581.493 37.4877C581.74 37.3257 582.007 36.9917 582.099 36.6814C582.276 36.0424 582.091 35.1392 581.505 35.0447Z" fill="#D3CBCF"/>
<path d="M565.559 60.5496C565.338 60.5581 565.116 60.5666 564.895 60.575C564.792 60.5739 564.69 60.5727 564.581 60.5532C564.518 60.5488 564.472 60.5337 564.409 60.5293C564.369 60.5325 564.191 60.4903 564.386 60.5218C564.581 60.5532 564.402 60.511 564.363 60.5142C564.3 60.5098 564.254 60.4947 564.191 60.4903C564.082 60.4708 563.966 60.4329 563.857 60.4134C563.655 60.3636 563.463 60.2846 563.271 60.2056C563.172 60.157 563.079 60.1267 562.98 60.078C562.828 59.9958 562.98 60.078 563.049 60.1007C562.997 60.0672 562.95 60.0521 562.897 60.0186C562.715 59.9104 562.526 59.784 562.338 59.6575C562.149 59.531 561.97 59.3754 561.798 59.2381C561.702 59.1419 561.612 59.0641 561.516 58.968C561.45 58.8977 561.35 58.7357 561.523 58.9863C561.479 58.9237 561.426 58.8902 561.383 58.8275C561.178 58.5984 560.959 58.446 560.658 58.4609C560.391 58.4542 560.041 58.6149 559.827 58.8685C559.416 59.3649 559.197 60.2805 559.615 60.757C560.417 61.6182 561.302 62.3121 562.344 62.7664C563.241 63.1568 564.233 63.3033 565.224 63.223C565.802 63.1857 566.422 62.644 566.495 61.8914C566.549 61.1971 566.177 60.509 565.559 60.5496Z" fill="#D3CBCF"/>
<path d="M574.267 16.6884C572.59 15.9789 570.85 15.2651 568.936 15.4104C568.361 15.4475 567.746 15.9855 567.673 16.7331C567.612 17.4047 567.989 18.1066 568.603 18.0663C569.053 18.0206 569.49 18.051 569.933 18.0997C569.973 18.0965 570.019 18.1115 570.065 18.1266C569.776 18.1124 569.956 18.1072 570.019 18.1115C570.127 18.1309 570.236 18.1503 570.344 18.1697C570.561 18.2085 570.768 18.2763 570.968 18.3258C571.807 18.5679 572.599 18.9076 573.392 19.2473C573.901 19.4784 574.649 18.9673 574.834 18.3045C575.071 17.5623 574.823 16.9345 574.267 16.6884Z" fill="#D3CBCF"/>
<path d="M563.288 37.5999C561.669 37.3445 560.151 36.6379 558.652 35.9863C558.124 35.7651 557.391 36.2675 557.205 36.933C556.983 37.6674 557.239 38.3159 557.79 38.5447C559.282 39.178 560.801 39.8846 562.426 40.1583C562.73 40.2091 562.974 40.2082 563.27 40.0146C563.516 39.8532 563.782 39.5206 563.874 39.2116C563.975 38.8734 564 38.4943 563.877 38.2121C563.777 37.9374 563.569 37.6432 563.288 37.5999Z" fill="#D3CBCF"/>
<path d="M566.64 -1.53728C563.784 -1.99064 561.025 -2.84529 558.169 -3.29866C557.611 -3.38482 556.944 -3.10611 556.73 -2.35815C556.532 -1.73327 556.716 -0.839362 557.312 -0.756371C560.168 -0.303003 562.927 0.55164 565.783 1.00501C566.341 1.09117 567.008 0.81246 567.222 0.0645027C567.404 -0.549694 567.22 -1.4436 566.64 -1.53728Z" fill="#D3CBCF"/>
<path d="M555.392 19.5346C553.903 19.3186 552.35 19.4806 550.861 19.2646C550.607 19.2291 550.242 19.4449 550.04 19.6661C549.839 19.8874 549.651 20.2567 549.629 20.5848C549.598 20.9415 549.645 21.292 549.848 21.518C550.041 21.7728 550.27 21.8477 550.564 21.88C552.053 22.096 553.606 21.934 555.095 22.15C555.349 22.1855 555.714 21.9697 555.916 21.7485C556.117 21.5272 556.305 21.1579 556.327 20.8298C556.358 20.4731 556.311 20.1226 556.108 19.8966C555.898 19.6524 555.686 19.5669 555.392 19.5346Z" fill="#D3CBCF"/>
<path d="M546.904 47.7032C545.012 46.5139 543.012 45.5334 541.229 44.1354C540.769 43.7729 539.997 44.0256 539.653 44.6626C539.299 45.3289 539.358 46.1142 539.866 46.492C541.665 47.8791 543.649 48.8705 545.54 50.0598C546.021 50.3636 546.753 50.2283 547.116 49.5326C547.427 48.9173 547.414 48.0332 546.904 47.7032Z" fill="#D3CBCF"/>
<path d="M546.471 6.40092C544.517 6.09898 542.693 5.37363 540.732 5.05346C540.43 5.00281 540.187 5.00366 539.892 5.1964C539.647 5.35702 539.382 5.68809 539.291 5.99573C539.093 6.62172 539.276 7.51718 539.874 7.60026C541.828 7.9022 543.652 8.62754 545.612 8.94771C545.915 8.99837 546.158 8.99751 546.452 8.80477C546.698 8.64416 546.963 8.31308 547.054 8.00544C547.235 7.39015 547.052 6.49471 546.471 6.40092Z" fill="#D3CBCF"/>
<path d="M540.122 29.3622C538.284 28.5667 536.442 27.8186 534.548 27.1504C534.015 26.9763 533.294 27.4031 533.098 28.0989C532.885 28.8056 533.122 29.5136 533.684 29.7136C535.572 30.3635 537.42 31.1299 539.259 31.9254C539.788 32.147 540.522 31.6436 540.708 30.9769C540.931 30.2411 540.674 29.5913 540.122 29.3622Z" fill="#D3CBCF"/>
<path d="M528.666 8.55644C527.024 7.85744 525.405 7.16601 523.78 6.45621C523.25 6.23439 522.515 6.73832 522.329 7.40577C522.106 8.14233 522.363 8.79281 522.916 9.02221C524.541 9.73201 526.176 10.4126 527.802 11.1224C528.331 11.3443 529.067 10.8403 529.253 10.1729C529.482 9.45469 529.225 8.80421 528.666 8.55644Z" fill="#D3CBCF"/>
<path d="M534.532 -4.6572C534.082 -4.61145 533.645 -4.64186 533.201 -4.69052C533.162 -4.68734 533.116 -4.7024 533.07 -4.71746C533.359 -4.70326 533.179 -4.69805 533.116 -4.7024C533.008 -4.7218 532.899 -4.74121 532.791 -4.76061C532.574 -4.79942 532.367 -4.86719 532.166 -4.91671C531.328 -5.15882 530.535 -5.49852 529.743 -5.83822C529.217 -6.0586 528.486 -5.55821 528.301 -4.89534C528.08 -4.16384 528.335 -3.51776 528.884 -3.28985C530.561 -2.58033 532.301 -1.86646 534.215 -2.01181C534.79 -2.04887 535.406 -2.58692 535.479 -3.33464C535.516 -4.01372 535.139 -4.71569 534.532 -4.6572Z" fill="#D3CBCF"/>
<path d="M527.808 28.5488C527.221 28.4542 526.647 28.2826 526.113 27.9942C526.189 28.0354 526.282 28.0658 526.365 28.1254C525.708 27.7806 525.107 27.308 524.548 26.7845C524.362 26.61 524.001 26.5729 523.742 26.6507C523.468 26.7393 523.15 26.9925 522.989 27.2804C522.834 27.5868 522.716 27.9375 522.757 28.2754C522.804 28.6317 522.954 28.8755 523.177 29.0944C524.274 30.0861 525.502 30.8775 526.935 31.1027C527.24 31.1539 527.485 31.153 527.783 30.9583C528.031 30.796 528.298 30.4616 528.39 30.1509C528.492 29.8109 528.517 29.4297 528.393 29.1459C528.3 28.8881 528.09 28.5923 527.808 28.5488Z" fill="#D3CBCF"/>
<path d="M553.202 65.8315C551.364 65.0361 549.631 63.9678 547.629 63.62C547.325 63.5691 547.08 63.57 546.784 63.764C546.537 63.9257 546.27 64.2589 546.179 64.5684C545.98 65.1984 546.164 66.0994 546.765 66.1829C548.777 66.5016 550.501 67.599 552.339 68.3944C552.851 68.6268 553.603 68.1127 553.789 67.446C554.027 66.6996 553.761 66.079 553.202 65.8315Z" fill="#D3CBCF"/>
<path d="M581.253 -4.22744C579.983 -5.03035 578.55 -5.61241 577.055 -5.85927C576.751 -5.91015 576.507 -5.90925 576.211 -5.71543C575.964 -5.55392 575.698 -5.22104 575.606 -4.91174C575.505 -4.57334 575.48 -4.19392 575.603 -3.91141C575.719 -3.64723 575.928 -3.35281 576.192 -3.29872C577.36 -3.1103 578.467 -2.69988 579.501 -2.15154C579.425 -2.19255 579.333 -2.2228 579.25 -2.28214C579.471 -2.17742 579.676 -2.06193 579.888 -1.92811C580.129 -1.7684 580.393 -1.71432 580.69 -1.79495C580.963 -1.88314 581.279 -2.13514 581.44 -2.42176C581.771 -3.02408 581.758 -3.90046 581.253 -4.22744Z" fill="#D3CBCF"/>
<path d="M588.177 52.8743C591.514 53.8855 594.904 54.8171 598.114 56.206C598.642 56.4271 599.351 55.9174 599.56 55.2598C599.805 54.5333 599.503 53.87 598.975 53.6489C595.749 52.2707 592.382 51.3467 589.022 50.328C588.474 50.165 587.81 50.5768 587.575 51.2742C587.357 51.9609 587.613 52.7221 588.177 52.8743Z" fill="#D3CBCF"/>
</svg>
