<svg width="1904" height="898" viewBox="0 0 1904 898" fill="none" xmlns="http://www.w3.org/2000/svg">
<path d="M208.842 199.873C198.198 195.866 185 188.746 184.847 174.582C184.756 164.97 189.812 156.12 192.229 147.109C196.875 129.774 190.774 110.755 180.538 97.173C170.033 83.2153 154.662 73.3384 138.284 70.3337C130.24 68.8442 121.928 69.0732 114.049 71.3302C106.138 73.5881 98.578 77.8242 91.5896 82.3736C76.04 92.5345 62.2366 106.165 51.1109 121.717C40.1855 137.001 31.3609 154.765 28.1065 173.994C26.6168 182.87 26.2965 192.164 27.7797 201.103C29.5762 211.848 34.4623 221.761 40.8573 230.108C53.9481 247.177 73.4636 258.615 93.2105 263.571C112.908 268.477 133.132 262.984 147.368 247.264C154.804 239.053 159.756 228.949 164.562 218.798C167.004 213.66 169.9 208.176 175.269 206.296C180.559 204.435 186.013 206.286 190.919 208.591C195.141 210.603 199.153 213.11 203.374 215.088C204.124 215.448 204.839 215.198 205.298 214.451C207.327 211.019 209.751 207.923 211.01 204.009C211.594 202.141 208.827 201.443 208.242 203.312C207.102 206.908 204.656 209.847 202.796 213.012C203.448 212.8 204.067 212.588 204.719 212.375C196.848 208.699 189.058 202.473 180.161 202.476C169.097 202.496 164.561 212.045 160.15 221.486C155.436 231.53 149.78 241.184 141.87 248.642C134.319 255.757 124.958 260.417 115.028 261.797C94.6892 264.641 72.8879 255.091 56.7103 242.029C48.4401 235.346 41.1168 227.098 36.1366 217.258C31.4813 208.053 29.4964 197.96 29.668 187.502C29.9684 168.298 37.0529 149.838 46.5302 133.955C56.4661 117.324 69.532 102.705 84.3654 91.2057C97.6469 80.9249 113.009 71.9565 129.775 72.4884C146.478 73.0224 162.771 81.5439 174.446 94.4349C185.774 106.97 193.716 125.808 190.079 143.565C188.226 152.645 183.583 160.837 182.266 170.092C180.847 180.188 185.29 189.278 192.905 195.057C197.544 198.574 202.819 200.884 208.132 202.862C209.952 203.537 210.564 200.516 208.842 199.873Z" fill="#E1D4DB"/>
<path d="M198.997 200.804C192.971 197.825 186.689 195.394 180.918 191.831C178.106 190.109 175.444 188.068 173.153 185.562C170.595 182.716 168.882 179.217 167.154 175.735C161.759 164.704 158.874 152.426 152.817 141.764C141.502 121.896 120.35 109.519 99.2592 107.314C87.4831 106.086 75.5848 108.136 64.9881 113.874C63.3482 114.762 64.857 117.38 66.4814 116.509C85.6414 106.162 108.978 108.905 127.382 120.063C137.172 126.006 145.661 134.43 151.315 145.017C156.952 155.553 159.778 167.502 165.162 178.185C168.478 184.77 172.356 189.803 178.316 193.761C184.407 197.783 191.205 200.337 197.671 203.529C199.332 204.348 200.674 201.639 198.997 200.804Z" fill="#E1D4DB"/>
<path d="M166.805 191.931C134.158 186.344 99.3546 185.672 69.3128 168.95C60.5943 164.102 52.6513 157.887 45.8355 150.259C44.5718 148.835 42.6362 151.075 43.9 152.499C68.5342 179.992 104.828 186.265 138.23 190.869C147.559 192.159 156.901 193.327 166.192 194.914C167.967 195.241 168.595 192.241 166.805 191.931Z" fill="#E1D4DB"/>
<path d="M150.538 172.803C130.196 145.342 97.2414 131.038 65.5923 128.245C63.7748 128.076 63.8869 131.156 65.6879 131.308C96.2111 133.998 128.495 147.888 148.118 174.378C149.24 175.928 151.661 174.353 150.538 172.803Z" fill="#E1D4DB"/>
<path d="M122.69 166.009C109.537 163.987 97.2308 157.737 86.1744 149.897C84.6487 148.812 83.3221 151.538 84.8477 152.623C96.0843 160.58 108.683 166.96 122.061 169.01C123.851 169.284 124.511 166.283 122.69 166.009Z" fill="#E1D4DB"/>
<path d="M156.263 204.492C142.185 208.984 127.697 212.652 112.919 212.18C97.0956 211.654 82.5027 205.806 68.5234 198.02C58.7739 192.593 48.8469 186.108 43.0184 175.709C42.0663 173.996 39.6453 175.607 40.5974 177.321C45.6605 186.331 53.6715 192.615 61.9994 197.739C69.7537 202.479 77.8952 206.771 86.3214 209.904C100.577 215.24 115.539 216.439 130.407 214.136C139.461 212.715 148.324 210.289 157.079 207.482C158.826 206.904 158.011 203.948 156.263 204.492Z" fill="#E1D4DB"/>
<path d="M151.686 216.708C141.509 229.066 128.122 237.846 113.012 240.786C95.8264 244.105 78.3701 239.758 64.3383 228.378C55.8726 221.495 48.6564 212.986 40.9787 205.119C39.6523 203.766 37.6991 205.991 39.0421 207.361C53.3198 221.995 66.8256 238.642 86.8907 243.255C102.299 246.795 118.414 244.678 132.428 236.942C140.539 232.464 147.711 226.183 153.775 218.839C154.98 217.336 152.907 215.222 151.686 216.708Z" fill="#E1D4DB"/>
<path d="M106.926 225.818C96.8735 226.085 86.7542 223.686 78.7544 216.705C77.3356 215.46 75.3998 217.701 76.8186 218.946C85.4129 226.466 96.1687 229.21 107.006 228.901C108.85 228.86 108.753 225.76 106.926 225.818Z" fill="#E1D4DB"/>
<path d="M132.401 199.947C120.147 199.726 108.081 197.266 96.1868 194.173C94.4066 193.706 93.778 196.709 95.5581 197.175C107.679 200.331 120.003 202.817 132.481 203.031C134.328 203.06 134.232 199.993 132.401 199.947Z" fill="#E1D4DB"/>
<path d="M70.0333 184.241C63.7456 181.096 57.5397 178 52.8707 172.26C51.6541 170.783 49.7196 173.022 50.9362 174.499C55.7718 180.443 62.2395 183.705 68.7393 186.965C70.3683 187.785 71.711 185.076 70.0333 184.241Z" fill="#E1D4DB"/>
<path d="M66.333 148.902C60.4416 146.196 54.8512 142.853 48.9444 140.165C47.2682 139.399 45.9417 142.125 47.6178 142.891C53.5092 145.597 59.0996 148.94 65.0064 151.628C66.698 152.376 68.0257 149.685 66.333 148.902Z" fill="#E1D4DB"/>
<path d="M178.229 161.676C174.953 147.146 172.614 131.786 163.977 119.604C154.886 106.792 141.4 97.4826 127.025 93.6015C118.664 91.341 109.99 90.8152 101.435 91.5574C99.6118 91.7198 99.7073 94.7829 101.53 94.6204C120.863 92.9436 139.078 98.619 153.863 112.522C160.569 118.824 165.666 126.484 168.818 135.495C171.864 144.23 173.452 153.5 175.514 162.546C175.959 164.483 178.657 163.596 178.229 161.676Z" fill="#E1D4DB"/>
<path d="M179.013 120.542C175.312 113.397 171.623 106.13 166.62 99.915C161.517 93.5638 155.093 89.0658 147.69 86.5668C145.956 85.9775 145.328 88.9755 147.062 89.5648C154.239 92.0013 160.295 96.5284 165.154 102.765C169.745 108.628 173.133 115.486 176.595 122.151C177.499 123.881 179.901 122.29 179.013 120.542Z" fill="#E1D4DB"/>
<path d="M221.804 313.458C224.489 304.32 224.218 293.043 221.191 284.016C219.103 277.803 214.339 269.704 207.153 271.415C200.859 272.923 198.257 281.134 198.371 287.357C198.509 294.348 200.377 301.754 203.728 307.77C205.377 310.735 207.603 313.647 210.556 315.176C213.657 316.787 216.922 316.474 219.972 314.929C221.632 314.091 220.121 311.47 218.477 312.29C207.54 317.801 202.145 298.192 201.359 290.001C200.858 284.732 201.543 277.872 206.35 275.016C211.819 271.755 216.516 279.281 218.139 283.939C221.243 292.876 221.708 303.675 219.039 312.796C218.487 314.662 221.254 315.359 221.804 313.458Z" fill="#E1D4DB"/>
<path d="M219.61 312.821C216.127 306.603 214.507 299.419 212.702 292.485C212.209 290.565 209.477 291.454 209.985 293.356C211.862 300.532 213.602 307.973 217.205 314.414C218.14 316.111 220.578 314.517 219.61 312.821Z" fill="#E1D4DB"/>
<path d="M200.313 321.065C195.938 317.646 191.47 314.37 186.819 311.379C181.512 307.955 175.585 304.203 169.406 303.161C167.228 302.794 164.804 302.784 162.939 304.221C160.886 305.803 160.332 308.611 160.397 311.207C160.492 315.284 161.589 319.574 163.904 322.814C166.556 326.531 170.342 329.044 174.355 330.608C182.949 333.945 194.921 333.408 200.235 324.223C201.21 322.553 198.678 321.117 197.718 322.769C193.577 329.945 184.056 330.352 177.271 328.388C173.529 327.304 169.873 325.327 167.178 322.274C164.749 319.526 163.61 315.935 163.284 312.196C163.182 310.979 163.142 309.69 163.474 308.511C163.676 307.772 164.089 307.114 164.48 306.805C165.717 305.806 167.582 305.922 169.278 306.269C174.785 307.367 179.99 310.619 184.771 313.641C187.587 315.435 190.343 317.336 193.052 319.29C194.103 320.059 195.154 320.827 196.206 321.631C196.651 321.983 197.094 322.3 197.538 322.652C197.933 322.954 198.229 323.189 198.377 323.306C199.857 324.445 201.81 322.22 200.313 321.065Z" fill="#E1D4DB"/>
<path d="M198.123 322.447C192.005 321.299 186.2 318.85 180.299 316.91C178.548 316.338 177.919 319.34 179.67 319.912C185.572 321.852 191.377 324.3 197.495 325.448C199.287 325.793 199.93 322.773 198.123 322.447Z" fill="#E1D4DB"/>
<path d="M189.037 289.8C187.857 281.819 186.348 273.028 181.525 266.557C178.578 262.606 174.202 258.614 169.487 257.648C167.468 257.241 165.359 257.518 163.803 259.066C162.014 260.849 161.554 263.618 161.44 266.132C161.164 272.695 165.007 278.64 169.388 282.772C174.182 287.291 180.438 290.875 186.856 291.386C188.673 291.52 188.561 288.438 186.76 288.321C182.08 287.964 177.429 285.445 173.648 282.532C169.554 279.367 165.727 274.956 164.546 269.502C163.797 266.074 164.119 259.928 168.584 260.605C172.485 261.179 176.153 264.584 178.703 267.658C183.589 273.587 185.08 282.291 186.199 289.873C186.484 291.816 189.322 291.744 189.037 289.8Z" fill="#E1D4DB"/>
<path d="M187.307 287.438C183.433 283.486 179.978 279.12 176.104 275.168C174.78 273.817 172.829 276.038 174.17 277.406C178.045 281.358 181.499 285.724 185.373 289.676C186.714 291.044 188.648 288.806 187.307 287.438Z" fill="#E1D4DB"/>
<path d="M1668.37 137.503C1694.66 150.83 1731.94 155.79 1754.78 134.798C1755.41 134.23 1755.3 133.184 1754.78 132.523C1749.22 125.52 1740.53 121.567 1732.76 118.249C1723.49 114.272 1714.37 111.553 1704.44 111.084C1695.29 110.649 1687.19 112.263 1679.04 116.412C1674.95 118.48 1671.04 120.934 1667.21 123.465C1665.51 124.602 1663.79 125.761 1662.09 126.934C1660.9 127.756 1659.29 128.419 1658.56 129.747C1658.13 130.531 1658.45 131.449 1659.11 131.942C1662.02 134.191 1665.3 135.594 1668.37 137.503C1670.06 138.549 1671.58 135.841 1669.86 134.781C1666.8 132.872 1663.51 131.469 1660.62 129.255C1660.81 129.999 1660.99 130.742 1661.17 131.45C1661.66 130.557 1664.08 129.469 1665.03 128.818C1666.62 127.727 1668.24 126.65 1669.84 125.594C1673.3 123.325 1676.84 121.132 1680.52 119.276C1688.39 115.294 1696.15 113.875 1704.98 114.335C1714.19 114.811 1722.61 117.367 1731.22 121.001C1738.71 124.142 1747.26 127.942 1752.65 134.708C1752.64 133.938 1752.65 133.203 1752.65 132.432C1741.64 142.534 1726.7 145.867 1712.21 145.533C1697.78 145.205 1683.09 141.482 1669.84 134.768C1668.11 133.902 1666.59 136.61 1668.37 137.503Z" fill="#DBDBDB"/>
<path d="M1663.69 131.929C1679.16 129.796 1694.87 129.596 1710.54 130.46C1717.28 130.833 1723.99 130.858 1730.74 131.024C1737.79 131.209 1745.07 131.637 1751.76 134.579C1753.57 135.371 1754.33 132.288 1752.52 131.496C1746.07 128.682 1739.03 128.083 1732.23 127.854C1724.99 127.603 1717.79 127.644 1710.55 127.243C1694.6 126.374 1678.68 126.646 1662.93 128.808C1661 129.083 1661.8 132.209 1663.69 131.929Z" fill="#DBDBDB"/>
<path d="M1743.47 134.201C1727.32 137.235 1710.9 140.656 1694.26 138.266C1692.34 137.986 1692.36 141.206 1694.28 141.486C1711.15 143.913 1727.86 140.44 1744.24 137.348C1746.14 136.991 1745.36 133.865 1743.47 134.201Z" fill="#DBDBDB"/>
<path d="M1719.56 120.984C1710.08 119.493 1700.77 120.461 1691.41 121.631C1689.5 121.86 1690.3 124.994 1692.19 124.751C1701.34 123.616 1710.37 122.735 1719.6 124.177C1721.51 124.512 1721.47 121.284 1719.56 120.984Z" fill="#DBDBDB"/>
<path d="M1689.85 134.706C1685.8 134.081 1681.8 132.957 1677.71 132.718C1676.89 132.659 1676.21 133.428 1676.22 134.29C1676.21 135.173 1676.92 135.898 1677.75 135.935C1681.84 136.174 1685.84 137.298 1689.89 137.923C1690.71 138.039 1691.39 137.155 1691.38 136.351C1691.36 135.419 1690.65 134.844 1689.85 134.706Z" fill="#DBDBDB"/>
<path d="M1641.93 107.969C1670.76 107.545 1705.35 93.9576 1716.46 63.4088C1716.79 62.5444 1716.05 61.6946 1715.37 61.3651C1707.38 57.5306 1697.86 58.1676 1689.56 58.9015C1680.4 59.7172 1671.87 61.4071 1663.49 65.3549C1655.07 69.3108 1648.38 74.5609 1642.8 82.4052C1639.93 86.4418 1637.43 90.7872 1635.04 95.2022C1633.98 97.1668 1632.93 99.1675 1631.88 101.146C1631.15 102.551 1630.02 103.959 1629.95 105.621C1629.91 106.26 1630.44 107.123 1631.09 107.25C1634.72 107.978 1638.3 107.684 1641.93 107.969C1643.88 108.119 1643.85 104.858 1641.9 104.708C1638.55 104.43 1635.17 104.768 1631.83 104.142C1632.21 104.697 1632.59 105.216 1632.97 105.771C1633.03 104.725 1634.8 102.335 1635.39 101.253C1636.37 99.3852 1637.35 97.5169 1638.38 95.6766C1640.55 91.717 1642.83 87.8271 1645.43 84.1821C1650.77 76.6852 1657.4 71.8138 1665.43 68.0857C1673.45 64.3797 1681.68 62.8792 1690.43 62.1474C1698.25 61.4916 1707.14 60.9375 1714.63 64.5318C1714.26 63.8385 1713.91 63.1813 1713.54 62.4881C1708.18 77.177 1696.45 87.48 1683.6 94.1957C1670.8 100.881 1656.35 104.516 1641.92 104.722C1639.97 104.746 1640 108.007 1641.93 107.969Z" fill="#DBDBDB"/>
<path d="M1635.12 105.262C1648.16 95.4917 1662.22 87.478 1676.77 80.5098C1682.77 77.648 1688.56 74.3785 1694.46 71.3309C1700.39 68.2751 1706.67 65.304 1713.38 64.8087C1715.29 64.6624 1715.28 61.4136 1713.35 61.546C1700.17 62.5154 1688.92 71.1341 1677.26 76.6599C1662.02 83.8575 1647.24 92.1447 1633.61 102.366C1632.07 103.532 1633.58 106.428 1635.12 105.262Z" fill="#DBDBDB"/>
<path d="M1706.32 68.1508C1693.58 78.7681 1680.74 89.9486 1665.29 95.8231C1663.5 96.4989 1664.29 99.7012 1666.1 99.0031C1682.07 92.9392 1695.28 81.5519 1708.47 70.5726C1709.98 69.3152 1707.81 66.9155 1706.32 68.1508Z" fill="#DBDBDB"/>
<path d="M1680.03 67.9863C1671.07 71.2236 1663.33 76.569 1655.6 82.2192C1654.03 83.3729 1655.55 86.2719 1657.11 85.1181C1664.61 79.6414 1672.13 74.331 1680.83 71.1591C1682.64 70.4995 1681.84 67.3267 1680.03 67.9863Z" fill="#DBDBDB"/>
<path d="M1659.36 94.8273C1655.42 96.2555 1651.33 97.1904 1647.52 99.0045C1646.82 99.3483 1646.56 100.459 1646.95 101.198C1647.42 102.015 1648.26 102.244 1649.02 101.906C1649.95 101.448 1650.68 101.154 1651.57 100.819C1652.53 100.468 1653.5 100.153 1654.47 99.8376C1656.36 99.2374 1658.25 98.695 1660.13 98.0232C1660.87 97.7648 1661.46 96.9912 1661.18 96.0901C1660.99 95.2801 1660.17 94.5528 1659.36 94.8273Z" fill="#DBDBDB"/>
<path d="M1949.84 -35.22C1966.63 -7.99088 1979.6 22.2941 1992.49 51.9436C1998.1 64.8333 2003.29 78.0324 2007.33 91.6596C2011.07 104.349 2014.23 117.939 2013.58 131.477C2013.28 137.927 2012.36 147.63 2005.82 150.586C2000.94 152.793 1994.96 150.826 1990.21 149.454C1981.82 147.002 1968.03 140.695 1962.12 151.781C1958.91 157.808 1959.53 165.08 1960.69 171.523C1962.28 180.225 1965 188.598 1967.08 197.108C1969.08 205.371 1971.18 214.766 1968.97 223.367C1966.7 232.088 1958.77 238.147 1950.52 238.419C1941.04 238.713 1932.47 231.923 1925.2 226.365C1918.35 221.095 1911.41 214.821 1903.15 212.266C1894.72 209.675 1887.29 213.809 1881.07 220.143C1872.84 228.48 1866.79 239.021 1860.03 248.674C1853.23 258.398 1846.05 266.519 1835.85 272.019C1828 276.254 1814.89 281.511 1808.1 273.192C1800.75 264.171 1804.52 248.192 1807.38 237.693C1811.05 224.236 1816.31 211.265 1821.21 198.274C1823.15 193.096 1825.05 187.909 1826.69 182.649C1827.14 181.204 1825.75 179.955 1824.54 180.036C1815.98 180.635 1807.22 179.486 1798.94 177.469C1790.84 175.487 1780.79 172.33 1775.54 164.928C1769.37 156.235 1776.26 145.542 1783.01 139.544C1791.82 131.68 1802.62 126.761 1812.59 120.959C1822.71 115.082 1834.12 107.818 1838.44 95.5991C1838.85 94.4334 1838.58 93.2156 1837.48 92.6167C1826.23 86.3542 1813.77 81.8558 1803.73 73.4116C1799.92 70.2237 1795.46 65.6684 1795.87 59.9126C1796.45 51.7526 1805.41 45.5774 1811.28 42.0011C1821.35 35.8569 1832.55 32.7509 1843.51 29.342C1851.23 26.9228 1863.23 25.4987 1865.74 15.2179C1866.31 12.8633 1865.48 11.7198 1864.2 10.05C1861.99 7.08973 1862.95 3.07217 1863.04 -0.644184C1863.06 -2.63621 1862.68 -5.79296 1863.75 -7.61264C1864.9 -9.67374 1868.29 -10.5076 1870.22 -11.2543C1882.31 -16.0563 1894.85 -19.0875 1907.2 -23.0101C1914.05 -25.2075 1921.1 -26.6638 1928.01 -28.6936C1935.37 -30.8447 1942.69 -33.1839 1950.02 -35.5232C1952.59 -36.3561 1951.31 -40.5651 1948.72 -39.7616C1935.57 -35.5498 1922.38 -31.6056 1909.06 -28.1262C1902.73 -26.4796 1896.48 -24.2476 1890.19 -22.4627C1883.91 -20.6778 1877.61 -18.843 1871.47 -16.4345C1866.98 -14.696 1860.63 -13.1582 1859.31 -7.36888C1858.65 -4.4345 1858.92 -1.19524 1858.82 1.79435C1858.74 5.46067 1858.08 9.1718 1860.25 12.2028C1860.64 12.7702 1861.73 13.4691 1861.74 14.1459C1861.84 16.8616 1857.25 20.3157 1855.4 21.08C1850.13 23.3167 1844.24 24.5538 1838.78 26.2376C1827.11 29.8239 1815.31 33.6428 1805 40.9878C1799.45 44.9344 1793.19 50.8209 1791.88 58.1932C1790.88 63.785 1793.29 68.8312 1796.66 72.7669C1806.8 84.5742 1822.59 89.5747 1835.57 96.7383C1835.23 95.7413 1834.95 94.753 1834.61 93.756C1830.17 106.367 1817.48 113.205 1807.07 119.079C1796.44 125.118 1784.53 130.603 1776.18 140.317C1770.31 147.159 1766.28 157.151 1770.84 165.666C1775.27 173.976 1784.85 177.951 1793.01 180.489C1803.06 183.646 1814.06 185.275 1824.64 184.514C1823.93 183.627 1823.23 182.768 1822.49 181.901C1818.43 194.92 1812.99 207.417 1808.46 220.27C1804.31 232.106 1799.9 244.825 1799.78 257.504C1799.68 267.882 1802.94 279.08 1813.27 281.512C1822.84 283.775 1833.44 278.793 1841.69 273.572C1851.63 267.322 1858.57 258.092 1865.3 248.2C1871.97 238.4 1878.41 226.843 1887.76 219.732C1896.37 213.177 1904.61 216.898 1912.4 222.373C1920.5 228.089 1927.92 235.127 1936.8 239.539C1944.97 243.61 1953.89 244.297 1962.08 239.167C1969.02 234.836 1972.93 227.466 1973.63 219.044C1975.18 200.335 1965.41 183.699 1963.84 165.537C1963.37 160.342 1963.85 152.343 1969.54 150.445C1974.56 148.782 1980.66 151.343 1985.37 152.785C1995.66 155.936 2009.41 159.824 2014.9 145.961C2018.91 135.811 2017.94 123.519 2016.32 113.125C2014.09 98.7543 2009.79 84.895 2004.77 71.522C1999.91 58.4637 1994.26 45.7742 1988.4 33.1997C1981.01 17.2491 1974.08 0.997871 1966.1 -14.5989C1962.05 -22.5001 1957.74 -30.2157 1953.08 -37.7132C1951.84 -40.1803 1948.36 -37.6015 1949.84 -35.22Z" fill="#DBDBDB"/>
<path d="M1947.42 -39.3478C1938.97 0.106091 1921.1 36.8078 1904.77 73.1835C1896.22 92.2143 1887.92 111.397 1879.09 130.296C1869.76 150.239 1860.27 170.097 1851.25 190.201C1846.31 201.166 1841.53 212.237 1837 223.41C1834.75 228.972 1832.56 234.571 1830.46 240.189C1828.27 245.996 1826.8 251.965 1824.66 257.782C1823.7 260.465 1827.39 262.357 1828.38 259.654C1830.11 254.869 1831.27 249.9 1833.02 245.145C1834.9 240.029 1836.85 234.951 1838.87 229.861C1842.92 219.682 1847.18 209.596 1851.59 199.616C1860.6 179.225 1870.17 159.098 1879.6 138.944C1888.8 119.312 1897.55 99.4925 1906.39 79.6907C1914.65 61.173 1923.18 42.7578 1930.95 23.9647C1939.28 3.72918 1946.84 -17.0132 1951.44 -38.5548C1952.1 -41.3985 1948.02 -42.1504 1947.42 -39.3478Z" fill="#DBDBDB"/>
<path d="M1869.48 219.097C1868.58 210.826 1867.87 202.489 1867.37 194.137C1866.78 184.68 1866.25 175.053 1867.04 165.571C1867.22 163.373 1864.97 161.985 1863.44 163.77C1853.26 175.54 1841.51 185.556 1831.52 197.49C1829.69 199.661 1832.82 202.541 1834.64 200.37C1844.64 188.436 1856.39 178.42 1866.57 166.65C1865.37 166.033 1864.15 165.436 1862.97 164.849C1862.15 174.531 1862.58 184.271 1863.19 193.887C1863.7 202.448 1864.41 210.994 1865.34 219.504C1865.64 222.338 1869.8 221.961 1869.48 219.097Z" fill="#DBDBDB"/>
<path d="M1920.08 200.68C1902.31 173.666 1897.2 141.163 1892.72 108.704C1892.56 107.446 1891.34 106.066 1890.01 106.752C1869.84 117.485 1849.27 127.177 1829.03 137.742C1826.59 138.998 1827.86 143.281 1830.33 142.004C1850.56 131.44 1871.13 121.748 1891.3 111.014C1890.4 110.347 1889.49 109.73 1888.58 109.063C1893.18 142.25 1898.42 175.611 1916.62 203.254C1918.11 205.598 1921.62 203.033 1920.08 200.68Z" fill="#DBDBDB"/>
<path d="M1948.02 135.454C1931.82 111.18 1924.77 80.9121 1918.03 52.057C1917.71 50.6143 1915.97 50.1794 1914.91 50.9678C1896.53 64.3793 1874.49 69.821 1856.12 83.1822C1853.87 84.8124 1856.13 88.526 1858.41 86.8751C1876.75 73.4844 1898.82 68.0722 1917.2 54.6607C1916.16 54.3075 1915.11 53.9248 1914.08 53.5716C1920.94 82.814 1928.13 113.449 1944.53 138.047C1946.08 140.349 1949.57 137.755 1948.02 135.454Z" fill="#DBDBDB"/>
<path d="M1967.56 82.9251C1958.91 55.6605 1946.95 29.986 1937.3 3.15841C1936.93 2.09535 1935.75 1.2439 1934.67 1.79364C1915.64 11.244 1894.08 10.7345 1875.39 21.319C1872.97 22.6856 1875.28 26.3647 1877.67 25.019C1895.97 14.6454 1917.27 15.3419 1935.94 6.03135C1935.05 5.57349 1934.2 5.12446 1933.3 4.6666C1942.96 31.4438 1954.91 57.1687 1963.56 84.4333C1964.43 87.1577 1968.41 85.6199 1967.56 82.9251Z" fill="#DBDBDB"/>
<path d="M876.959 147.936C865.742 139.895 852.329 132.801 838.234 132.81C824.865 132.809 813.679 140.918 807.46 153.844C801.798 165.608 799.858 179.259 799.237 192.114C798.543 206.485 799.55 221.264 803.291 234.909C805.955 244.563 810.104 254.804 819.174 258.999C827.09 262.677 836.269 260.656 844.268 257.283C854.021 253.182 862.995 246.823 871.349 239.989C879.203 233.606 887.262 226.597 893.737 218.603C902.072 208.32 906.681 195.246 903.28 182.232C899.362 167.239 888.09 157.641 877.806 147.774C876.422 146.45 874.137 148.637 875.531 149.983C884.275 158.36 893.818 166.289 898.703 178.159C902.927 188.386 902.047 199.656 896.357 209.564C891.154 218.575 883.146 225.697 875.575 232.405C868.188 238.924 860.371 245.031 851.97 249.906C844.367 254.334 835.61 258.303 826.972 257.694C818.047 257.048 812.322 250.498 808.916 242.196C804.183 230.723 802.504 217.568 802.096 204.948C801.676 191.883 802.621 178.307 806.252 165.582C810.284 151.412 819.001 138.447 833.5 136.341C848.502 134.15 863.486 142.265 875.251 150.679C876.842 151.802 878.528 149.071 876.959 147.936Z" fill="#D3CBCF"/>
<path d="M879.274 149.114C876.566 146.661 874.082 143.629 873.43 139.742C872.893 136.527 873.746 133.216 875.106 130.245C878.293 123.304 883.688 117.594 888.202 111.612C890.557 108.509 892.829 105.282 894.32 101.586C893.373 101.407 892.405 101.24 891.436 101.073C888.705 117.141 891.241 137.603 876.787 148.464C875.195 149.667 877.137 151.982 878.74 150.802C893.996 139.322 891.528 118.113 894.413 101.194C894.738 99.2833 892.157 99.0827 891.519 100.659C888.639 107.739 882.816 113.462 878.377 119.43C874.091 125.2 869.482 132.285 870.395 139.852C870.967 144.577 873.777 148.39 877.01 151.344C878.428 152.62 880.712 150.436 879.274 149.114Z" fill="#D3CBCF"/>
<path d="M880.438 150.883C888.719 142.861 899.747 136.463 911.226 138.644C910.855 137.841 910.484 137.037 910.113 136.234C906.99 141.572 901.604 145.34 896.192 147.824C890.78 150.308 884.287 151.912 878.581 150.016C876.739 149.418 875.727 152.37 877.569 152.969C883.907 155.064 890.981 153.492 897.055 150.805C903.076 148.119 909.151 143.857 912.589 137.914C913.217 136.818 912.604 135.724 911.477 135.504C899.256 133.179 887.271 140.015 878.462 148.531C877.04 149.953 879.007 152.283 880.438 150.883Z" fill="#D3CBCF"/>
<path d="M877.644 148.495C860.96 141.966 854.561 120.168 862.748 102.274C861.895 102.5 861.041 102.726 860.199 102.916C862.986 106.075 866.085 108.883 868.85 112.055C871.482 115.042 874.237 118.509 874.573 122.92C874.739 125.025 877.677 124.278 877.543 122.183C876.838 112.772 867.861 106.684 862.503 100.619C861.677 99.7003 860.474 100.125 859.954 101.261C851.003 120.863 858.551 144.525 876.609 151.604C878.384 152.329 879.431 149.185 877.644 148.495Z" fill="#D3CBCF"/>
<path d="M833.531 141.857C831.907 144.125 831.438 146.91 830.895 149.593C830.824 149.973 831.028 150.482 831.258 150.75C831.488 151.019 831.889 151.248 832.263 151.237C832.669 151.237 833.077 151.122 833.361 150.793C833.677 150.475 833.79 150.128 833.862 149.691C833.85 149.783 833.769 150.14 833.862 149.691C833.875 149.599 833.909 149.495 833.921 149.403C833.956 149.242 833.981 149.058 834.016 148.897C834.087 148.574 834.147 148.229 834.238 147.894C834.378 147.306 834.517 146.718 834.688 146.141C834.757 145.876 834.858 145.621 834.959 145.366C835.015 145.25 835.06 145.111 835.116 144.995C835.139 144.926 835.161 144.856 835.194 144.81C835.317 144.543 835.016 145.193 835.138 144.926C835.394 144.415 835.67 143.949 835.977 143.493C836.46 142.827 836.236 141.677 835.571 141.284C834.874 140.88 834.036 141.121 833.531 141.857Z" fill="#D3CBCF"/>
<path d="M858.917 157.784C858.611 159.309 858.061 160.772 857.437 162.192C857.393 162.273 857.37 162.342 857.326 162.423C857.426 162.227 857.381 162.308 857.315 162.458C857.236 162.642 857.148 162.804 857.07 162.989C856.903 163.336 856.715 163.694 856.538 164.019C856.162 164.736 855.764 165.465 855.366 166.194C854.968 166.924 855.034 167.96 855.775 168.396C856.42 168.801 857.416 168.672 857.858 167.862C859.429 164.956 861.075 161.981 861.744 158.7C861.837 158.253 861.865 157.899 861.68 157.493C861.526 157.155 861.179 156.81 860.839 156.717C860.136 156.542 859.093 156.923 858.917 157.784Z" fill="#D3CBCF"/>
<path d="M886.396 183.044C886.379 183.365 886.363 183.685 886.346 184.005C886.333 184.154 886.319 184.303 886.284 184.464C886.272 184.556 886.249 184.625 886.237 184.716C886.236 184.774 886.167 185.038 886.226 184.751C886.284 184.464 886.215 184.729 886.214 184.786C886.202 184.877 886.179 184.947 886.167 185.038C886.132 185.199 886.075 185.372 886.04 185.533C885.96 185.832 885.848 186.121 885.736 186.409C885.669 186.56 885.624 186.698 885.557 186.848C885.446 187.08 885.557 186.848 885.591 186.745C885.546 186.826 885.524 186.895 885.479 186.976C885.335 187.254 885.17 187.544 885.004 187.834C884.839 188.125 884.641 188.404 884.465 188.672C884.345 188.824 884.246 188.963 884.126 189.115C884.038 189.22 883.843 189.386 884.147 189.103C884.071 189.174 884.027 189.255 883.951 189.326C883.667 189.653 883.469 189.99 883.45 190.424C883.411 190.814 883.551 191.301 883.813 191.58C884.327 192.114 885.339 192.314 885.928 191.647C886.999 190.373 887.89 189 888.527 187.429C889.076 186.078 889.359 184.619 889.385 183.191C889.411 182.356 888.871 181.526 888.027 181.515C887.247 181.525 886.423 182.153 886.396 183.044Z" fill="#D3CBCF"/>
<path d="M838.19 168.084C837.178 170.642 836.153 173.293 836.086 176.087C836.059 176.926 836.597 177.76 837.44 177.769C838.198 177.77 839.043 177.124 839.072 176.227C839.074 175.572 839.162 174.926 839.271 174.267C839.273 174.21 839.295 174.14 839.318 174.071C839.267 174.497 839.283 174.233 839.295 174.14C839.331 173.978 839.366 173.816 839.401 173.655C839.472 173.331 839.574 173.017 839.655 172.716C840.032 171.452 840.516 170.243 840.999 169.034C841.324 168.254 840.832 167.223 840.1 167.038C839.283 166.787 838.537 167.235 838.19 168.084Z" fill="#D3CBCF"/>
<path d="M860.852 185.596C860.368 187.992 859.385 190.298 858.466 192.568C858.151 193.367 858.634 194.373 859.368 194.558C860.175 194.786 860.942 194.329 861.268 193.496C862.165 191.238 863.149 188.931 863.654 186.524C863.748 186.074 863.776 185.719 863.591 185.312C863.437 184.973 863.091 184.628 862.751 184.534C862.38 184.431 861.952 184.443 861.617 184.658C861.293 184.839 860.934 185.182 860.852 185.596Z" fill="#D3CBCF"/>
<path d="M817.769 178.966C816.901 183.241 815.587 187.426 814.72 191.701C814.553 192.536 814.789 193.484 815.617 193.7C816.306 193.909 817.349 193.52 817.517 192.629C818.385 188.353 819.699 184.168 820.567 179.893C820.733 179.059 820.497 178.111 819.669 177.894C818.99 177.708 817.947 178.097 817.769 178.966Z" fill="#D3CBCF"/>
<path d="M840.413 196.917C839.978 199.162 839.969 201.452 839.535 203.698C839.462 204.082 839.664 204.596 839.893 204.866C840.121 205.136 840.521 205.366 840.895 205.354C841.3 205.353 841.708 205.236 841.993 204.903C842.309 204.581 842.424 204.23 842.498 203.788C842.932 201.543 842.941 199.253 843.375 197.007C843.448 196.623 843.246 196.109 843.018 195.839C842.789 195.569 842.389 195.339 842.016 195.35C841.61 195.352 841.202 195.469 840.918 195.802C840.611 196.147 840.487 196.475 840.413 196.917Z" fill="#D3CBCF"/>
<path d="M871.358 210.886C869.8 213.739 868.464 216.722 866.683 219.443C866.221 220.147 866.417 221.22 867.095 221.636C867.805 222.062 868.697 221.882 869.181 221.11C870.952 218.366 872.298 215.405 873.856 212.553C874.254 211.828 874.186 210.797 873.444 210.36C872.787 209.99 871.789 210.116 871.358 210.886Z" fill="#D3CBCF"/>
<path d="M825.522 209.946C824.94 212.86 823.891 215.64 823.287 218.566C823.193 219.017 823.164 219.375 823.348 219.783C823.501 220.123 823.846 220.469 824.186 220.562C824.876 220.771 825.919 220.383 826.086 219.493C826.668 216.579 827.717 213.8 828.32 210.873C828.415 210.422 828.443 210.065 828.259 209.656C828.106 209.316 827.761 208.97 827.421 208.877C826.742 208.691 825.699 209.079 825.522 209.946Z" fill="#D3CBCF"/>
<path d="M850.682 220.496C849.563 223.27 848.496 226.043 847.514 228.882C847.254 229.678 847.652 230.673 848.417 230.869C849.193 231.087 850.024 230.653 850.318 229.81C851.278 226.983 852.366 224.198 853.486 221.424C853.8 220.626 853.316 219.623 852.583 219.437C851.775 219.208 851.008 219.664 850.682 220.496Z" fill="#D3CBCF"/>
<path d="M827.055 237.08C826.069 239.55 825.095 241.987 824.099 244.435C823.785 245.231 824.269 246.234 825.003 246.42C825.811 246.649 826.578 246.194 826.903 245.363C827.899 242.915 828.863 240.456 829.859 238.008C830.173 237.212 829.689 236.209 828.955 236.023C828.169 235.782 827.402 236.237 827.055 237.08Z" fill="#D3CBCF"/>
<path d="M812.657 227.651C812.654 228.306 812.566 228.952 812.457 229.61C812.456 229.668 812.433 229.737 812.411 229.807C812.462 229.38 812.446 229.645 812.433 229.737C812.398 229.899 812.363 230.061 812.327 230.223C812.257 230.547 812.155 230.86 812.074 231.161C811.696 232.425 811.213 233.634 810.73 234.844C810.415 235.646 810.896 236.654 811.629 236.839C812.436 237.067 813.203 236.607 813.529 235.77C814.541 233.212 815.565 230.562 815.632 227.768C815.659 226.929 815.121 226.095 814.278 226.086C813.509 226.12 812.664 226.766 812.657 227.651Z" fill="#D3CBCF"/>
<path d="M849.129 239.167C848.953 240.026 848.692 240.876 848.304 241.684C848.359 241.568 848.404 241.43 848.482 241.303C848.015 242.295 847.41 243.222 846.753 244.094C846.534 244.385 846.45 244.911 846.508 245.274C846.576 245.66 846.825 246.086 847.131 246.283C847.459 246.468 847.842 246.595 848.229 246.494C848.637 246.381 848.93 246.134 849.204 245.785C850.453 244.077 851.492 242.204 851.914 240.108C852.008 239.661 852.035 239.308 851.85 238.902C851.696 238.564 851.349 238.22 851.008 238.127C850.636 238.022 850.208 238.033 849.873 238.247C849.57 238.415 849.211 238.754 849.129 239.167Z" fill="#D3CBCF"/>
<path d="M891.725 202.061C890.605 204.836 889.188 207.493 888.556 210.448C888.462 210.897 888.434 211.252 888.619 211.658C888.773 211.997 889.119 212.342 889.459 212.435C890.15 212.644 891.194 212.261 891.359 211.376C891.959 208.41 893.408 205.764 894.528 202.989C894.852 202.214 894.359 201.188 893.625 201.002C892.807 200.751 892.072 201.217 891.725 202.061Z" fill="#D3CBCF"/>
<path d="M815.304 156.596C814.242 158.548 813.411 160.711 812.953 162.92C812.859 163.369 812.831 163.725 813.016 164.131C813.17 164.47 813.516 164.815 813.856 164.908C814.228 165.012 814.655 165 814.991 164.785C815.304 164.581 815.663 164.239 815.756 163.848C816.109 162.122 816.706 160.457 817.451 158.88C817.396 158.996 817.35 159.135 817.273 159.263C817.418 158.927 817.574 158.614 817.751 158.289C817.961 157.917 818.054 157.525 817.997 157.103C817.93 156.716 817.682 156.288 817.376 156.091C816.732 155.686 815.736 155.817 815.304 156.596Z" fill="#D3CBCF"/>
<path d="M878.349 147.853C879.897 142.849 881.361 137.779 883.323 132.911C883.637 132.112 883.143 131.141 882.421 130.921C881.625 130.658 880.836 131.185 880.521 131.984C878.57 136.874 877.117 141.91 875.558 146.949C875.307 147.769 875.696 148.686 876.46 148.939C877.213 149.169 878.109 148.696 878.349 147.853Z" fill="#D3CBCF"/>
<path d="M1702.92 877.173C1724.33 855.459 1746.2 831.938 1757.89 802.093C1763.57 787.567 1765.25 772.211 1765.74 756.309C1766.24 739.814 1765 721.789 1770.59 706.438C1773.72 697.85 1778.61 690.24 1784.37 683.559C1787.31 680.128 1790.47 676.961 1793.81 673.972C1795.52 672.429 1797.3 670.96 1799.06 669.519C1800.43 668.416 1802 666.372 1803.62 665.83C1805.84 665.073 1804.63 661.287 1802.41 662.044C1799.8 662.927 1798.58 664.787 1796.51 666.54C1793.59 669.038 1790.64 671.477 1787.87 674.165C1782.35 679.512 1777.36 685.518 1773.26 692.212C1769.36 698.603 1766.38 705.698 1764.74 713.286C1763.05 721.156 1762.83 729.525 1762.55 737.651C1762 754.71 1762.6 772.228 1758.41 788.627C1754.12 805.291 1745.5 820.332 1735.82 833.715C1725.16 848.459 1712.77 861.646 1700.17 874.427C1698.49 876.126 1701.27 878.888 1702.92 877.173Z" fill="#DCD3D7"/>
<path d="M1746.97 807.636C1731.09 813.854 1712.84 796.84 1703.54 783.877C1698.73 777.178 1694 768.863 1693.65 760.365C1693.51 757.157 1694.19 753.998 1696.09 751.562C1698.29 748.756 1702.75 746.265 1706.27 746.709C1710.46 747.249 1711.04 753.35 1711.5 756.855C1712.13 761.532 1712.37 766.422 1713.87 770.93C1716.98 780.215 1727.8 785.872 1736.1 782.459C1744.29 779.081 1747.18 768.02 1743.94 759.35C1740.43 749.93 1732.62 742.471 1725.85 735.669C1719.32 729.117 1709.96 721.913 1707.27 712.389C1705.31 705.389 1706.65 698.113 1709.71 692.006C1710.25 690.944 1712.2 686.115 1713.78 686.195C1713.87 686.214 1714.91 688.437 1715.17 689.076C1718.27 697.349 1718.61 707.44 1724.09 714.608C1729.22 721.326 1739 723.929 1743.37 715.975C1747.82 707.859 1745.74 698.358 1742.99 689.773C1741.31 684.534 1739.13 678.13 1741.62 673.001C1743.08 670.026 1749.07 664.468 1752.78 667.001C1756.63 669.627 1754.96 677.325 1757.94 680.882C1763.29 687.281 1771.82 675.474 1772.81 670.795C1773.98 665.047 1772.34 658.828 1770.78 653.181C1768.98 646.619 1767.02 639.964 1766.42 633.155C1765.76 625.789 1767.43 619.129 1771.84 613.656C1775.51 609.095 1780.73 606.33 1786.1 604.558C1791.13 602.863 1797.44 601.617 1802.62 604.238C1807.31 606.636 1808.83 611.186 1806.79 615.857C1803.98 622.326 1795.65 629.462 1798.28 637.667C1799.51 641.452 1803.23 644.693 1806.84 645.226C1810.82 645.808 1814.67 643.821 1818.04 642.027C1822.49 639.632 1826.73 636.629 1831.53 635.03C1836.7 633.315 1841.67 635.009 1846.4 638.019C1855.96 644.1 1863.08 656.864 1856.41 667.536C1850.06 677.699 1837.73 675.609 1827.78 677.83C1817.66 680.082 1800.78 694.163 1814.77 704.566C1820.1 708.525 1826.45 710.773 1832.36 713.382C1837.96 715.833 1844.7 718.423 1848.95 723.398C1852.65 727.732 1851.67 734.807 1846.92 737.407C1841.73 740.256 1834.23 737.04 1829.02 735.027C1816.61 730.286 1799.29 719.658 1786.76 727.363C1778.62 732.364 1776.15 743.576 1778.73 753.273C1781.67 764.293 1791.66 773.059 1802.12 768.999C1806.98 767.127 1811.12 763.508 1816.23 762.344C1821.01 761.256 1827.4 763.007 1831.14 766.845C1837 772.789 1831.9 781.24 1827.35 785.416C1820.91 791.363 1812.45 793.299 1804.07 790.418C1797.73 788.213 1787.03 782.314 1781.78 788.983C1775.9 796.446 1782.94 803.998 1787.53 809.839C1790.6 813.761 1791.32 817.766 1787.73 821.403C1784.58 824.609 1779.73 824.335 1775.62 823.329C1767.63 821.344 1759.36 816.49 1753.02 810.642C1751.24 808.984 1748.81 811.721 1750.62 813.394C1757.2 819.491 1765.54 824.461 1773.84 826.838C1781.62 829.073 1792.01 827.779 1793.76 817.772C1795.42 808.465 1783.84 804.813 1783.23 796.438C1782.3 783.916 1800.03 793.267 1805.29 794.826C1813.33 797.257 1821.81 794.852 1828.18 789.759C1833.41 785.582 1838.71 778.389 1837.04 770.631C1835.14 761.791 1824.27 757.35 1816.95 758.3C1811.67 758.984 1807.4 762.248 1802.71 764.532C1796.6 767.494 1790.16 766.197 1785.66 760.028C1778.94 750.764 1779.59 734.749 1790.04 730.023C1796.81 726.977 1805.16 729.8 1811.98 732.297C1819.64 735.12 1827.1 738.902 1834.94 741.071C1840.51 742.607 1847.19 743.392 1851.36 738.681C1855.15 734.432 1856.06 727.561 1852.62 722.412C1848.92 716.859 1842.33 713.877 1836.76 711.302C1830.43 708.405 1823.71 706.108 1817.77 702.237C1812.93 699.054 1811.18 695.266 1815.02 690.493C1818.04 686.725 1822.02 683.596 1826.51 682.201C1831.6 680.605 1837.03 680.637 1842.3 679.842C1852.43 678.325 1861.86 671.807 1862.58 659.827C1863.25 649.062 1855.69 639.291 1847.2 634.202C1842.9 631.619 1837.96 629.733 1833.13 630.582C1828.34 631.419 1824.02 634.099 1819.87 636.498C1816.21 638.608 1810.88 642.654 1806.34 641.248C1801.55 639.8 1800.58 634.88 1802.4 630.805C1805.39 624.072 1813.9 616.723 1810.72 608.127C1806.49 596.642 1792.26 598.165 1784.05 601.112C1773.49 604.903 1764.25 612.956 1762.82 625.656C1762.11 632.027 1763.35 638.528 1764.86 644.809C1766.5 651.583 1769.22 658.518 1769.51 665.488C1769.67 668.947 1768.98 672.313 1766.77 674.842C1765.82 675.935 1763.04 678.845 1761.35 678.661C1759.52 678.469 1759.34 675.342 1759 673.715C1757.77 667.949 1755.74 661.568 1749.05 662.86C1744.43 663.762 1739.89 667.177 1737.99 671.829C1736.02 676.547 1736.95 681.99 1738.31 686.932C1739.75 692.129 1742.13 697.202 1742.29 702.599C1742.42 706.804 1741.9 712.148 1739.21 715.285C1735.81 719.28 1729.66 715.936 1726.78 712.302C1723.87 708.653 1722.71 703.306 1721.54 698.859C1720.52 695.059 1718.33 679.595 1711.89 682.703C1707.72 684.713 1705.23 691.989 1703.97 696.333C1702.3 702.024 1702.18 708.333 1704.05 714.207C1707.07 723.68 1715.83 730.808 1722.44 737.406C1729.38 744.343 1738.87 752.636 1741.27 762.918C1742.49 768.157 1740.78 774.413 1736.8 777.473C1732.03 781.165 1725.17 779.441 1720.76 775.273C1713.48 768.372 1716.9 756.552 1712.93 747.964C1709.1 739.633 1699.18 742.77 1694.33 747.592C1689.52 752.377 1689.25 759.84 1690.95 766.549C1695.43 784.281 1710.86 801.169 1726.1 808.778C1733.02 812.237 1740.9 814.049 1748 811.271C1750.24 810.532 1749.12 806.808 1746.97 807.636Z" fill="#DCD3D7"/>
<path d="M-174.674 1051.54C-129.783 1045.79 -85.9698 1031.24 -53.973 996.717C-13.9673 953.565 3.68438 892.559 30.2953 839.265C37.7951 824.219 46.3021 810.068 55.5827 796.364C61.8343 787.119 69.8172 774.772 80.7422 771.999C79.8638 771.209 78.9855 770.418 78.1466 769.613C77.7431 775.325 73.9392 779.515 70.4816 783.242C67.0865 786.896 63.653 790.385 60.5651 794.381C53.0154 804.193 46.5609 815.198 40.8137 826.471C32.6377 842.486 25.1581 859.59 19.9597 877.261C17.3115 886.268 15.042 895.871 15.8104 905.654C15.904 906.817 16.9735 907.637 17.9699 907.592C29.3741 907.266 40.6257 905.313 51.8252 903.584C65.2162 901.513 78.5523 899.232 92.0199 897.489C97.5624 896.774 103.11 896.133 108.723 895.85C112.303 895.672 116.33 895.299 119.93 896.388C120.621 896.612 121.608 897.03 121.698 897.149C121.815 897.283 121.75 896.925 121.668 897.313C121.646 897.373 121.254 898.744 121.134 898.968C120.281 900.31 115.655 901.19 113.548 901.577C98.8355 904.275 83.5922 904.751 68.6858 906.196C58.476 907.194 48.3045 908.356 38.1701 909.861C32.8354 910.651 27.5223 911.56 22.2425 912.559C20.7097 912.857 18.7003 912.901 17.3501 913.692C15.8075 914.631 14.4095 916.689 13.2239 918.105C1.6878 931.615 -6.55011 948.495 -15.1249 964.406C-24.6799 982.166 -35.3415 998.762 -49.2883 1012.57C-65.6536 1028.72 -84.8878 1041.26 -105.949 1049.23C-126.564 1057.02 -148.382 1061.07 -169.597 1066.81C-168.784 1067.24 -167.943 1067.69 -167.13 1068.12C-169.661 1062.75 -171.899 1056.53 -171.078 1050.61C-170.717 1048.01 -174.488 1047.18 -174.849 1049.79C-175.719 1056.37 -173.452 1063.39 -170.633 1069.42C-170.112 1070.52 -169.226 1071.03 -168.166 1070.73C-148.461 1065.41 -128.305 1061.55 -109.036 1054.81C-89.4906 1047.97 -71.5651 1037.61 -55.6101 1023.93C-40.0346 1010.63 -27.157 994.245 -16.8035 975.724C-7.5435 959.172 0.692823 941.681 11.7502 926.516C14.0842 923.34 16.9931 918.314 20.7043 917.092C25.9099 915.407 31.8948 915.035 37.3199 914.186C47.8658 912.576 58.5049 911.339 69.1595 910.326C84.629 908.822 100.603 908.555 115.768 905.38C118.524 904.799 122.816 904.173 124.36 901.295C125.306 899.535 126.011 896.821 124.589 894.808C122.911 892.407 119.548 892.019 117.141 891.78C112.518 891.332 107.906 891.645 103.368 892.032C76.8575 894.237 51.0515 900.587 24.568 902.985C22.1917 903.194 19.7988 903.358 17.4007 903.447C18.1337 904.088 18.8273 904.744 19.5603 905.386C18.8713 896.363 21.0353 887.386 23.4648 879.125C26.2338 869.716 29.7714 860.679 33.5499 851.806C41.9011 832.257 51.2858 813.006 63.9774 796.663C70.0564 788.835 81.099 781.886 81.906 770.463C82.0351 768.808 80.6635 767.719 79.3104 768.077C70.099 770.433 63.056 779.364 57.3782 786.939C49.5829 797.303 42.5193 808.487 36.0561 819.954C21.3411 846.138 9.97721 874.501 -2.27769 902.282C-14.824 930.733 -28.6299 958.156 -47.0565 982.223C-61.5778 1001.22 -79.9391 1016.24 -100.661 1026.58C-123.93 1038.2 -149.43 1044.1 -175.216 1047.41C-177.587 1047.69 -177.085 1051.84 -174.674 1051.54Z" fill="#D7D7D7"/>
<path d="M40.3998 886.216C40.3985 870.446 48.879 856.318 59.2424 846.073C69.9425 835.507 84.1766 827.383 99.3132 826.32C107.357 825.748 115.105 827.685 122.401 831.772C131.755 837.033 139.975 843.473 150.818 843.189C160.489 842.946 169.722 839.999 179.265 838.922C186.559 838.113 194.106 838.899 201.205 841.419C214.207 846.067 225.341 856.768 228.457 871.167C232.148 888.266 225.623 906.595 210.63 913.848C203.752 917.174 196.077 918.491 188.459 919.102C180.596 919.73 172.476 918.935 164.886 921.274C150.766 925.609 144.287 939.415 132.988 947.826C117.12 959.64 93.3113 956.413 76.0035 947.504C66.8302 942.788 57.9201 935.721 52.8139 926.197C47.7399 916.758 46.4422 905.826 42.0217 896.122C40.9336 893.757 37.3776 895.046 38.4937 897.425C42.6011 906.413 44.0466 916.335 48.2061 925.279C52.3977 934.309 59.2748 941.367 67.2455 946.773C83.0587 957.483 103.131 961.944 120.916 957.772C128.955 955.904 135.64 951.572 141.447 945.68C146.789 940.253 151.296 933.813 157.513 929.385C165.265 923.876 173.906 923.745 183.108 923.405C191.316 923.091 199.616 922.228 207.35 919.542C223.486 913.947 232.76 899.623 233.191 881.588C233.551 866.175 226.2 851.92 213.632 843.365C199.347 833.632 183.717 833.677 168.116 836.675C162.664 837.71 157.175 838.832 151.597 839.105C145.053 839.417 139.358 837.359 133.546 833.947C124.829 828.867 116.678 823.406 106.677 822.4C91.174 820.83 75.9484 827.338 63.9604 836.591C51.8161 845.976 41.4745 859.274 37.8229 875.096C36.955 878.82 36.6084 882.597 36.6066 886.442C36.6202 889.106 40.4214 888.779 40.3998 886.216Z" fill="#D7D7D7"/>
<path d="M59.7298 891.148C64.8634 871.129 82.1633 858.598 96.2513 846.983C98.1354 845.437 95.7806 841.868 93.8854 843.444C79.3248 855.426 61.5031 868.552 56.182 889.271C55.532 891.796 59.0687 893.703 59.7298 891.148Z" fill="#D7D7D7"/>
<path d="M65.1265 900.768C80.6299 914.034 101.75 927.987 122.691 921.431C125.093 920.685 123.55 917.044 121.178 917.802C101.75 923.88 81.7428 909.856 67.486 897.696C65.5525 896.027 63.193 899.099 65.1265 900.768Z" fill="#D7D7D7"/>
<path d="M124.668 877.758C151.993 872.136 181.208 880.128 207.642 869.865C209.93 868.961 208.512 865.241 206.223 866.145C180.141 876.301 151.173 868.289 124.187 873.832C121.818 874.282 122.246 878.252 124.668 877.758Z" fill="#D7D7D7"/>
<path d="M126.606 883.376C137.976 885.507 147.919 891.985 158.488 896.421C169.028 900.846 179.805 902.519 190.656 898.59C193.007 897.725 191.499 894.095 189.148 894.96C166.767 903.073 148.202 883.449 127.063 879.498C124.581 879.017 124.141 882.936 126.606 883.376Z" fill="#D7D7D7"/>
<path d="M127.301 874.969C131.588 858.309 149.663 855.246 163.535 853.497C165.922 853.186 165.447 849.088 163.031 849.385C147.873 851.311 128.459 855.023 123.804 873.129C123.163 875.606 126.648 877.476 127.301 874.969Z" fill="#D7D7D7"/>
<path d="M117.845 848.542C110.228 855.787 105.619 865.548 100.534 875.025C100.017 875.995 100.027 877.202 100.948 878.047C101.691 878.726 103.12 878.816 103.636 877.847C108.532 868.708 112.933 859.056 120.257 852.059C122.038 850.402 119.637 846.854 117.845 848.542Z" fill="#D7D7D7"/>
<path d="M100.752 895.259C109.471 903.81 121.048 908.763 131.907 913.816C134.182 914.891 135.656 911.278 133.382 910.203C122.812 905.274 111.638 900.494 103.132 892.17C101.309 890.405 98.9574 893.507 100.752 895.259Z" fill="#D7D7D7"/>
<path d="M67.6469 901.235C65.7305 908.397 66.2904 916.64 67.8838 924.074C69.4816 931.582 72.4683 940.1 78.7011 944.812C80.7585 946.349 83.0902 943.308 81.0445 941.742C75.5364 937.586 72.9187 930.006 71.5616 923.334C70.2298 916.853 69.4721 909.358 71.1555 903.033C71.7913 900.597 68.3062 898.74 67.6469 901.235Z" fill="#D7D7D7"/>
<path d="M94.7686 920.627C94.4075 930.424 96.3375 942.248 104.338 948.805C106.32 950.427 108.696 947.417 106.697 945.753C99.8099 940.122 98.225 929.781 98.5316 921.366C98.5752 920.26 97.9843 919.215 96.8977 918.972C95.9391 918.831 94.8003 919.549 94.7686 920.627Z" fill="#D7D7D7"/>
<path d="M17.1134 840.016C11.5653 833.779 8.96964 824.855 7.32072 816.787C5.63914 808.63 4.76167 800.148 4.92863 791.932C5.06293 783.626 5.9688 775.335 7.45757 767.28C8.8928 759.446 10.969 751.273 15.3932 744.942C19.1745 739.555 23.6071 736.544 30.111 736.762C36.1813 736.965 42.3243 738.526 48.3149 737.475C59.6922 735.448 65.5416 725.163 70.3816 714.953C76.3047 702.425 82.2348 689.795 96.0126 686.395C109.327 683.143 124.194 687.088 135.699 696.214C146.836 705.074 155.679 719.747 155.426 734.691C155.228 746.669 146.67 753.283 138.81 759.586C129.999 766.671 122.132 774.789 122.088 787.918C122.091 795.618 124.5 802.875 126.766 810.235C127.653 813.126 128.697 816.562 127.511 819.395C125.746 823.527 120.546 825.314 116.917 826.717C114.686 827.574 116.112 831.497 118.354 830.611C123.846 828.514 131.017 825.412 131.786 818.154C132.411 812.031 128.916 805.557 127.459 799.657C125.626 792.312 124.999 784.568 127.924 777.839C130.223 772.527 134.368 768.616 138.553 765.118C146.616 758.387 156.227 752.186 158.631 740.442C161.449 726.707 154.57 710.823 145.666 700.501C135.796 689.03 121.814 681.985 107.864 681.196C93.2899 680.363 81.2638 686.432 73.6787 699.403C67.4123 710.145 63.7728 726.477 52.138 731.897C40.7643 737.169 26.8113 727.824 16.7329 737.093C10.6393 742.687 7.39753 750.817 5.29114 759.153C2.78675 769.097 1.5204 779.586 1.21211 790.045C0.940689 799.383 1.83256 808.942 3.85492 818.205C5.78622 827.099 8.74563 836.214 14.8161 843.012C16.542 845.061 18.8462 841.962 17.1134 840.016Z" fill="#D7D7D7"/>
<path d="M116.529 715.968C116.668 752.223 91.3102 785.75 57.4572 784.409C55.0254 784.312 55.5954 788.526 58.0272 788.624C93.4149 790.02 120.477 754.719 120.3 716.741C120.298 714.097 116.522 713.248 116.529 715.968Z" fill="#D7D7D7"/>
<path d="M96.3436 711.4C91.8658 726.929 84.6823 741.441 75.536 753.883C74.0317 755.948 77.1932 758.724 78.7268 756.673C88.0982 743.978 95.4805 729.09 100.048 713.204C100.723 710.654 97.0595 708.834 96.3436 711.4Z" fill="#D7D7D7"/>
<path d="M44.3945 749.536C41.7451 755.236 41.15 762.03 41.3889 768.583C41.6112 774.91 42.7398 781.612 45.4015 787.471C46.5302 789.949 50.0016 788.622 48.8729 786.144C46.4189 780.721 45.419 774.665 45.151 768.819C44.872 762.822 45.5113 756.629 47.9121 751.41C48.9968 749.064 45.4678 747.22 44.3945 749.536Z" fill="#D7D7D7"/>
<path d="M19.4772 764.529C17.9131 774.414 17.5552 784.761 18.5776 794.945C19.542 804.668 21.8281 815.163 27.7939 823.133C29.3967 825.274 32.4046 823 30.8018 820.859C25.1031 813.246 23.1336 803.241 22.2668 793.964C21.3634 784.346 21.7778 774.638 23.2302 765.302C23.6517 762.731 19.8821 761.912 19.4772 764.529Z" fill="#D7D7D7"/>
<path d="M106.172 803.753C97.7013 810.853 86.915 814.815 76.0467 816.313C65.872 817.698 54.7557 817.204 45.2448 812.26C43.0121 811.103 41.4963 814.696 43.729 815.852C53.8484 821.127 65.7145 821.779 76.5426 820.296C88.0521 818.73 99.4998 814.57 108.483 807.061C110.332 805.501 108.061 802.178 106.172 803.753Z" fill="#D7D7D7"/>
<path d="M83.0146 798.499C76.5102 802.484 72.7764 809.425 69.2235 816.426C68.7312 817.398 69.4382 818.789 70.2876 819.24C71.3352 819.795 72.2814 819.246 72.7343 818.289C75.9964 811.895 79.4343 805.667 85.3416 802.019C86.2089 801.499 86.2637 799.969 85.6776 799.078C85.0006 798.066 83.893 797.95 83.0146 798.499Z" fill="#D7D7D7"/>
<path d="M96.829 740.097C96.6358 749.439 95.6137 758.739 96.3342 768.169C96.5417 770.885 100.297 770.603 100.089 767.887C99.4086 758.804 100.42 749.897 100.597 740.872C100.618 739.725 100.007 738.64 98.9181 738.386C97.9705 738.208 96.8496 738.95 96.829 740.097Z" fill="#D7D7D7"/>
<path d="M76.3443 717.945C77.8755 727.033 79.4067 736.121 80.9379 745.209C81.3911 747.84 85.1334 747.602 84.6918 744.942C83.1606 735.854 81.6294 726.766 80.0982 717.678C79.673 715.063 75.9027 715.285 76.3443 717.945Z" fill="#D7D7D7"/>
</svg>
