<svg width="642" height="606" viewBox="0 0 642 606" fill="none" xmlns="http://www.w3.org/2000/svg">
<path d="M83.7291 604.338C83.9636 598.867 85.1792 591.81 91.2487 589.948C95.3692 588.689 99.8821 589.928 104.095 589.916C112.199 589.89 119.524 584.639 123.933 578.147C128.466 571.481 130.564 563.062 129.565 555.043C129.081 551.103 127.82 547.255 125.748 543.865C123.67 540.461 120.791 537.47 117.858 534.786C111.314 528.818 103.522 524.104 95.2785 520.882C87.1783 517.719 78.3051 515.85 69.5816 516.764C65.5561 517.192 61.515 518.218 57.8783 520.041C53.5094 522.237 49.9298 525.77 47.2347 529.809C41.7256 538.074 39.5364 548.623 40.1665 558.461C40.8116 568.269 46.0021 577.007 54.753 581.659C59.3237 584.089 64.361 585.121 69.3983 586.079C71.9492 586.568 74.7124 587.225 76.2719 589.492C77.8118 591.724 77.7786 594.501 77.4736 597.081C77.1988 599.305 76.6817 601.494 76.4218 603.713C76.3718 604.108 76.5791 604.41 76.9646 604.529C78.7242 605.041 80.3946 605.781 82.2537 605.873C83.1387 605.909 83.0515 604.53 82.1664 604.494C80.4606 604.417 78.8546 603.648 77.2334 603.18C77.416 603.457 77.5936 603.72 77.7762 603.997C78.2562 599.86 79.8442 595.439 78.5986 591.29C77.0427 586.132 72.302 585.224 67.6254 584.361C62.6474 583.432 57.7045 582.015 53.3914 579.269C49.2759 576.647 45.9629 572.87 43.9809 568.413C39.9133 559.286 40.9713 547.909 44.3257 538.711C46.0426 534.008 48.5652 529.549 52.1003 525.982C55.4076 522.646 59.47 520.444 63.991 519.201C72.291 516.912 81.2198 517.882 89.3754 520.293C97.9165 522.824 106.03 527.069 113.049 532.534C119.328 537.428 125.333 543.459 127.449 551.347C129.555 559.205 128.169 567.882 124.259 574.959C120.452 581.828 113.463 587.915 105.318 588.465C101.154 588.749 96.9825 587.62 92.8184 588.176C88.2785 588.791 84.9911 592.013 83.5714 596.296C82.7077 598.904 82.4519 601.657 82.3446 604.385C82.3088 605.32 83.6934 605.223 83.7291 604.338Z" fill="#577575"/>
<path d="M81.9085 599.898C82.3478 596.706 82.5151 593.463 83.2411 590.316C83.5892 588.784 84.0955 587.282 84.8538 585.895C85.7211 584.339 86.9886 583.096 88.2461 581.847C92.2415 577.93 97.1256 575.027 100.869 570.847C107.841 563.044 110.21 551.595 108.205 541.464C107.085 535.807 104.536 530.509 100.58 526.285C99.9681 525.632 99.052 526.668 99.6544 527.317C106.795 534.956 108.882 546.205 106.653 556.216C105.465 561.542 103.026 566.575 99.2575 570.557C95.5093 574.525 90.7588 577.359 86.9118 581.227C84.5403 583.611 82.9153 586.059 82.0457 589.345C81.1662 592.7 81.0183 596.199 80.5491 599.624C80.4293 600.503 81.7838 600.788 81.9085 599.898Z" fill="#577575"/>
<path d="M81.284 583.745C79.119 567.795 74.5366 551.46 77.5291 535.317C78.3955 530.633 79.9589 526.137 82.2882 521.989C82.7243 521.219 81.489 520.599 81.0529 521.369C72.6672 536.352 75.0475 554.091 77.7412 570.269C78.4919 574.788 79.2971 579.298 79.9142 583.836C80.0219 584.707 81.4016 584.62 81.284 583.745Z" fill="#577575"/>
<path d="M87.2185 573.715C96.1949 560.736 97.74 543.532 94.5108 528.396C94.329 527.526 93.0181 527.968 93.2049 528.829C96.321 543.426 94.8604 560.264 86.2011 572.784C85.6908 573.505 86.7082 574.436 87.2185 573.715Z" fill="#577575"/>
<path d="M86.2587 559.857C85.2879 553.459 86.2555 546.921 88.0831 540.766C88.3364 539.916 86.9769 539.642 86.7237 540.492C84.8713 546.746 83.8885 553.437 84.879 559.944C85.0114 560.814 86.396 560.742 86.2587 559.857Z" fill="#577575"/>
<path d="M74.4234 580.424C70.5199 574.422 66.9135 568.123 65.0484 561.165C63.0604 553.713 63.5349 546.161 64.9291 538.65C65.9 533.412 67.3014 527.957 70.9607 523.92C71.5648 523.259 70.5326 522.333 69.9285 522.994C66.7594 526.498 65.1762 531.033 64.1369 535.569C63.1821 539.788 62.4744 544.132 62.3057 548.462C62.0045 555.792 63.5825 562.927 66.6545 569.576C68.5332 573.622 70.8176 577.452 73.2505 581.184C73.744 581.926 74.902 581.172 74.4234 580.424Z" fill="#577575"/>
<path d="M68.5405 579.847C61.8001 576.662 56.15 571.526 52.7715 564.848C48.9393 557.248 48.367 548.553 51.2996 540.565C53.076 535.744 55.7271 531.3 58.0372 526.722C58.4338 525.932 57.2034 525.302 56.8019 526.102C52.5039 534.616 47.2319 543.025 48.0548 552.971C48.6877 560.609 51.8529 567.861 57.1414 573.421C60.203 576.64 63.9082 579.192 67.9158 581.092C68.7312 581.464 69.3509 580.229 68.5405 579.847Z" fill="#577575"/>
<path d="M58.37 560.128C56.8481 555.469 56.464 550.441 58.3489 545.823C58.6862 545.003 57.4508 544.383 57.1135 545.203C55.0798 550.167 55.4042 555.536 57.0542 560.556C57.33 561.411 58.6508 560.974 58.37 560.128Z" fill="#577575"/>
<path d="M73.023 568.716C71.4036 562.969 70.7734 557.026 70.4399 551.084C70.3916 550.195 69.0119 550.281 69.0602 551.171C69.3986 557.227 70.0533 563.293 71.7072 569.143C71.9533 570.009 73.2593 569.576 73.023 568.716Z" fill="#577575"/>
<path d="M71.1133 537.602C71.5873 534.266 72.0514 530.975 73.8698 528.067C74.3356 527.311 73.1002 526.691 72.6344 527.447C70.7516 530.458 70.2527 533.893 69.7588 537.342C69.634 538.207 70.9885 538.491 71.1133 537.602Z" fill="#577575"/>
<path d="M85.7847 531.361C86.1249 528.267 86.7815 525.233 87.1118 522.135C87.2069 521.255 85.8475 520.981 85.7524 521.861C85.4122 524.954 84.7556 527.988 84.4252 531.087C84.34 531.971 85.6846 532.251 85.7847 531.361Z" fill="#577575"/>
<path d="M95.802 585.207C101.601 581.836 107.89 578.797 111.927 573.219C116.172 567.349 118.293 559.869 117.951 552.662C117.754 548.47 116.766 544.35 115.248 540.448C114.922 539.617 113.616 540.05 113.942 540.88C117.372 549.7 117.479 558.928 113.561 567.597C111.786 571.528 109.2 574.88 105.761 577.494C102.425 580.024 98.6543 581.94 95.047 584.049C94.275 584.502 95.035 585.651 95.802 585.207Z" fill="#577575"/>
<path d="M113.587 580.349C116.147 577.713 118.761 575.069 120.738 571.943C122.76 568.754 123.798 565.182 123.837 561.405C123.848 560.52 122.468 560.607 122.457 561.492C122.413 565.154 121.311 568.558 119.304 571.619C117.422 574.508 114.941 576.96 112.555 579.422C111.936 580.064 112.958 580.985 113.587 580.349Z" fill="#577575"/>
<path d="M373.848 79.647C382.244 75.9558 390.132 68.625 394.507 60.5818C397.515 55.0418 400.028 46.2392 393.844 41.7546C388.421 37.8332 380.746 41.0036 376.368 45.0214C371.458 49.5419 367.444 55.6652 365.447 62.058C364.462 65.2077 363.913 68.7701 364.856 72.022C365.842 75.4399 368.319 77.7705 371.53 79.157C373.275 79.9131 374.109 77.0886 372.388 76.3332C360.895 71.3438 371.214 54.7843 376.537 49.0045C379.964 45.289 385.349 41.4882 390.711 43.407C396.82 45.5825 394.672 53.9719 392.456 58.1692C388.198 66.2158 380.786 73.3954 372.413 77.0872C370.696 77.8385 372.106 80.4211 373.848 79.647Z" fill="white"/>
<path d="M372.8 77.5709C374.85 70.9442 378.879 65.1509 382.6 59.3724C383.635 57.7777 381.112 56.2226 380.101 57.8179C376.256 63.8048 372.126 69.8541 369.998 76.714C369.429 78.5103 372.254 79.3914 372.8 77.5709Z" fill="white"/>
<path d="M353.697 67.7964C353.126 62.2483 352.389 56.7189 351.321 51.2271C350.111 44.9545 348.708 37.9937 345.19 32.5496C343.949 30.6309 342.283 28.7472 339.967 28.2102C337.417 27.6194 335.023 28.9634 333.208 30.6534C330.353 33.3025 328.037 36.8614 327.315 40.7013C326.483 45.103 327.296 49.6223 328.945 53.7183C332.487 62.4822 341.134 71.4155 351.381 69.7311C353.25 69.4314 352.532 66.5626 350.686 66.8629C342.687 68.1879 335.824 61.071 332.548 54.5745C330.742 50.992 329.634 46.9115 329.961 42.8955C330.253 39.2787 332.039 36.1283 334.492 33.5149C335.294 32.6669 336.189 31.8215 337.263 31.3343C337.932 31.0239 338.688 30.9278 339.18 31.036C340.748 31.3633 341.953 32.8808 342.875 34.4137C345.889 39.3726 347.152 45.4584 348.287 51.0698C348.946 54.3842 349.487 57.7188 349.957 61.0513C350.132 62.351 350.307 63.6507 350.457 64.9732C350.512 65.5397 350.59 66.0834 350.645 66.6499C350.701 67.1458 350.738 67.5235 350.756 67.7123C350.961 69.5779 353.903 69.6855 353.697 67.7964Z" fill="white"/>
<path d="M351.173 66.9935C347.773 61.5293 345.52 55.4857 342.836 49.6888C342.037 47.9711 339.453 49.3803 340.252 51.098C342.936 56.8949 345.189 62.9384 348.589 68.4027C349.58 70.0082 352.187 68.5997 351.173 66.9935Z" fill="white"/>
<path d="M368.222 39.2584C373.126 33.3017 378.382 26.5784 379.689 18.7535C380.486 13.9741 380.325 8.06103 377.762 3.79768C376.66 1.97716 375.005 0.517484 372.822 0.290277C370.309 0.030132 368.008 1.42384 366.128 2.92372C361.234 6.85621 359.628 13.5898 359.692 19.5942C359.764 26.1639 361.515 33.2759 365.58 38.5708C366.738 40.0634 368.869 38.0293 367.71 36.5602C364.735 32.7088 363.329 27.5134 362.806 22.7434C362.247 17.5722 362.764 11.8198 365.857 7.45913C367.796 4.71333 372.422 1.07921 375.02 4.9669C377.302 8.35125 377.395 13.3443 376.953 17.2629C376.078 24.7941 370.871 31.4483 366.211 37.1058C365.015 38.5547 367.026 40.7072 368.222 39.2584Z" fill="white"/>
<path d="M368.722 36.4445C368.879 30.9406 369.624 25.5007 369.781 19.9969C369.835 18.1152 366.894 18.0076 366.839 19.9128C366.682 25.4166 365.938 30.8566 365.78 36.3604C365.726 38.2655 368.667 38.3496 368.722 36.4445Z" fill="white"/>
<path d="M574.328 252.603C578.48 274.438 592.719 299.678 615.841 305.279C616.47 305.435 617.048 304.94 617.206 304.347C618.832 298.007 617.187 290.974 615.59 284.779C613.691 277.373 611.112 270.583 606.809 264.211C602.845 258.335 598.14 253.959 591.889 250.585C588.763 248.889 585.49 247.466 582.204 246.12C580.736 245.526 579.25 244.934 577.765 244.36C576.723 243.957 575.58 243.225 574.447 243.315C573.778 243.368 573.376 243.943 573.387 244.559C573.381 247.291 574.057 249.912 574.328 252.603C574.483 254.087 576.807 253.92 576.65 252.417C576.379 249.727 575.703 247.106 575.692 244.394C575.333 244.816 574.974 245.237 574.632 245.638C575.394 245.578 577.161 246.634 577.991 246.961C579.38 247.505 580.771 248.067 582.143 248.631C585.101 249.854 588.046 251.153 590.86 252.687C596.878 255.949 601.311 260.197 605.11 265.88C609.079 271.811 611.43 278.096 613.229 284.949C614.807 290.902 616.477 297.784 614.91 303.913C615.37 303.596 615.814 303.299 616.275 302.981C605.142 300.277 596.247 292.345 589.759 283.191C583.293 274.073 578.74 263.399 576.648 252.399C576.365 250.962 574.042 251.129 574.328 252.603Z" fill="#5B7580"/>
<path d="M575.502 247.402C583.921 256.159 591.293 265.859 598.006 275.968C600.896 280.32 603.978 284.508 606.991 288.776C610.133 293.239 613.237 297.949 614.563 303.324C614.922 304.773 617.121 303.98 616.762 302.531C615.471 297.359 612.578 292.726 609.579 288.401C606.388 283.792 603.041 279.326 599.939 274.654C593.1 264.368 585.588 254.567 577.026 245.653C575.967 244.559 574.464 246.344 575.502 247.402Z" fill="#5B7580"/>
<path d="M610.802 298.123C601.519 289.323 591.881 280.514 585.613 269.192C584.892 267.884 582.979 269.215 583.7 270.523C590.056 282.007 599.856 290.971 609.279 299.891C610.371 300.926 611.875 299.16 610.802 298.123Z" fill="#5B7580"/>
<path d="M607.791 277.713C604.3 271.201 599.421 265.81 594.396 260.468C593.374 259.371 591.871 261.156 592.892 262.234C597.795 267.455 602.495 272.711 605.897 279.043C606.582 280.372 608.494 279.023 607.791 277.713Z" fill="#5B7580"/>
<path d="M586.488 264.446C584.995 261.665 583.825 258.71 582.081 256.062C581.739 255.528 580.964 255.421 580.45 255.78C579.918 256.14 579.809 256.879 580.169 257.411C581.913 260.059 583.084 263.015 584.576 265.795C584.882 266.351 585.729 266.414 586.207 266.077C586.754 265.678 586.775 265.003 586.488 264.446Z" fill="#5B7580"/>
<path d="M580.155 223.706C593.753 241.383 617.794 257.331 640.992 251.927C641.654 251.781 641.814 250.982 641.695 250.43C640.262 243.942 635.475 238.3 631.201 233.459C626.475 228.112 621.528 223.512 615.315 219.911C609.082 216.292 602.882 214.262 595.66 213.958C591.947 213.805 588.224 214.009 584.509 214.305C582.855 214.437 581.185 214.588 579.533 214.739C578.365 214.851 577.008 214.716 575.992 215.339C575.6 215.576 575.336 216.252 575.558 216.702C576.808 219.24 578.639 221.339 580.155 223.706C580.966 224.969 582.879 223.638 582.068 222.375C580.678 220.185 578.914 218.23 577.739 215.911C577.588 216.372 577.455 216.813 577.305 217.273C577.947 216.886 580.183 217.025 581.093 216.953C582.652 216.81 584.211 216.667 585.773 216.561C589.118 216.313 592.471 216.158 595.828 216.302C602.731 216.593 608.678 218.738 614.601 222.212C620.505 225.689 625.2 230.178 629.684 235.301C633.695 239.882 638.135 245.159 639.48 251.243C639.72 250.738 639.943 250.252 640.183 249.747C629.023 252.339 617.502 249.217 607.587 243.965C597.71 238.73 588.869 231.241 582.069 222.393C581.151 221.194 579.238 222.525 580.155 223.706Z" fill="#5B7580"/>
<path d="M578.592 218.407C590.4 222.553 601.643 228.035 612.494 234.241C616.961 236.803 621.572 239.073 626.103 241.499C630.653 243.942 635.317 246.638 638.717 250.594C639.685 251.714 641.599 250.402 640.63 249.263C633.953 241.49 623.654 237.99 614.993 232.994C603.685 226.451 591.949 220.634 579.602 216.306C578.198 215.819 577.188 217.92 578.592 218.407Z" fill="#5B7580"/>
<path d="M633.133 247.823C620.992 244.189 608.47 240.717 597.876 233.518C596.65 232.681 595.127 234.448 596.372 235.284C607.322 242.735 620.136 246.353 632.7 250.121C634.136 250.549 634.551 248.252 633.133 247.823Z" fill="#5B7580"/>
<path d="M621.499 231.108C615.439 226.859 608.704 224.216 601.793 221.699C600.388 221.194 599.377 223.295 600.782 223.8C607.482 226.24 614.096 228.762 619.994 232.874C621.222 233.73 622.726 231.964 621.499 231.108Z" fill="#5B7580"/>
<path d="M596.511 228.871C593.839 227.008 591.386 224.847 588.545 223.221C588.017 222.927 587.236 223.213 586.981 223.758C586.712 224.378 586.967 224.993 587.517 225.324C588.221 225.716 588.734 226.05 589.346 226.468C590 226.921 590.635 227.394 591.271 227.867C592.505 228.798 593.702 229.75 594.97 230.64C595.465 230.994 596.198 231.047 596.604 230.51C596.999 230.067 597.047 229.259 596.511 228.871Z" fill="#5B7580"/>
<path d="M57.328 229.75C55.4247 236.911 45.5726 239.29 39.1898 239.463C35.8904 239.554 32.0981 239.224 29.3162 237.292C28.2626 236.567 27.4283 235.557 27.1174 234.293C26.7646 232.83 27.0627 230.638 28.0619 229.493C29.2574 228.13 31.3336 229.402 32.5592 230.085C34.1972 230.993 35.8051 232.095 37.6023 232.651C41.3071 233.792 45.7428 231.309 46.6858 227.526C47.6116 223.794 44.8072 220.086 41.2661 219.14C37.4216 218.108 33.1484 219.084 29.3371 219.849C25.6645 220.588 21.0961 222.174 17.4159 220.829C14.7165 219.831 12.7353 217.592 11.5438 215.025C11.3391 214.575 10.2829 212.711 10.6935 212.168C10.7216 212.141 11.6824 212.306 11.9473 212.37C15.3285 213.27 18.6149 215.59 22.2257 215.375C25.6094 215.175 28.821 212.324 27.3641 208.842C25.8749 205.292 22.3523 203.733 18.9569 202.634C16.8843 201.964 14.3206 201.19 13.3008 199.061C12.7129 197.822 12.4126 194.341 14.1202 193.635C15.8946 192.898 17.9285 195.358 19.7849 195.158C23.1207 194.802 21.4556 188.906 20.2121 187.422C18.6738 185.614 16.3 184.692 14.1296 183.877C11.6067 182.932 9.01694 182.019 6.71032 180.583C4.21141 179.035 2.50644 176.827 1.84475 173.934C1.29335 171.523 1.6897 168.995 2.43793 166.654C3.12912 164.45 4.27279 161.903 6.36846 160.693C8.2745 159.603 10.0883 160.165 11.0726 162.022C12.4411 164.586 12.6711 169.282 15.9178 170.33C17.4171 170.811 19.3551 170.268 20.4042 169.113C21.5599 167.838 21.8705 165.984 22.123 164.35C22.4485 162.186 22.5313 159.948 23.1935 157.855C23.913 155.596 25.6619 154.238 27.771 153.283C32.0338 151.351 37.8211 151.907 39.5808 156.863C41.2548 161.587 37.5822 165.472 35.8608 169.549C34.1053 173.699 34.4542 183.118 41.1696 180.654C43.7268 179.715 45.9892 177.998 48.2596 176.525C50.4019 175.128 52.8697 173.353 55.4856 173.044C57.7633 172.777 59.7689 174.839 59.4361 177.157C59.0728 179.696 56.2216 181.589 54.3122 182.955C49.7783 186.228 42.1802 189.821 41.5655 196.15C41.1663 200.259 44.1216 203.852 47.8283 205.281C52.0419 206.903 57.2615 205.468 58.5258 200.76C59.1171 198.577 58.9801 196.226 59.8582 194.124C60.6792 192.159 62.7939 190.308 64.9239 189.906C68.2412 189.257 69.6767 193.121 69.8934 195.749C70.2072 199.485 68.7587 202.963 65.7976 205.252C63.5517 206.975 59.0675 209.358 59.9046 212.839C60.8361 216.741 64.9507 216.063 67.9251 215.841C69.9191 215.697 71.3658 216.41 71.6436 218.569C71.8914 220.468 70.6203 222.129 69.2993 223.348C66.719 225.713 63.161 227.482 59.7583 228.323C58.7981 228.556 59.0726 230.085 60.044 229.847C63.5853 228.979 67.1986 227.211 69.9783 224.831C72.5845 222.604 74.7092 218.592 71.9631 215.543C69.4137 212.701 65.4281 215.941 62.6225 214.129C58.4222 211.429 65.716 207.38 67.4942 205.885C70.2284 203.609 71.5344 200.008 71.4723 196.508C71.4247 193.632 70.4345 190.006 67.5671 188.719C64.2979 187.256 60.2348 190.053 58.7499 192.89C57.6789 194.935 57.6726 197.246 57.2523 199.469C56.7021 202.36 54.7187 204.339 51.6626 204.449C47.0841 204.598 42.1596 200.491 43.21 195.626C43.8963 192.477 46.8298 190.187 49.2872 188.362C52.0517 186.32 55.0725 184.578 57.6737 182.313C59.5197 180.702 61.4006 178.511 60.9237 175.885C60.4992 173.509 58.5425 171.519 56.0691 171.497C53.402 171.473 50.8474 173.098 48.6725 174.456C46.2073 176.01 43.8383 177.847 41.162 179.023C38.9699 179.978 37.341 179.683 36.7632 177.161C36.3063 175.171 36.2832 172.998 36.9379 171.059C37.6733 168.862 39.0086 166.936 40.0412 164.868C42.0325 160.893 42.2648 155.959 38.6402 152.8C35.388 149.956 30.4421 150.283 26.7566 152.072C24.886 152.98 23.0825 154.282 22.1734 156.207C21.27 158.115 21.066 160.302 20.8138 162.362C20.5923 164.173 20.5734 167.053 19.0193 168.329C17.3922 169.683 15.593 168.839 14.7443 167.204C13.3386 164.507 13.0823 159.7 9.57995 158.749C4.9028 157.476 1.91398 162.911 0.84544 166.548C-0.529216 171.226 -0.228433 176.465 3.45184 180.05C5.30024 181.845 7.66592 182.977 10.0279 183.959C12.5772 185.016 15.4405 185.727 17.7232 187.312C18.8591 188.093 19.7592 189.153 20.0242 190.549C20.1385 191.153 20.3833 192.848 19.9116 193.406C19.4061 194.009 18.3687 193.317 17.7688 193.045C15.639 192.088 13.1201 191.264 11.8971 193.959C11.0551 195.824 11.0306 198.267 12.0433 200.07C13.061 201.911 15.0134 202.9 16.9139 203.612C18.9135 204.359 21.1059 204.737 22.8558 205.989C24.2218 206.96 25.7919 208.437 26.1305 210.155C26.5685 212.333 24.0059 213.714 22.1502 213.859C20.2834 214.01 18.302 213.131 16.6057 212.471C15.1515 211.914 9.70934 208.951 9.12401 211.996C8.7456 213.966 10.4451 216.616 11.5169 218.115C12.9148 220.088 14.8878 221.658 17.2083 222.413C20.9509 223.632 25.3509 222.238 29.0569 221.482C32.9515 220.691 37.8992 219.319 41.7473 220.954C43.7072 221.788 45.2748 223.912 45.276 226.068C45.2828 228.661 43.0609 230.687 40.6633 231.247C36.6951 232.171 33.7791 228.092 30.0851 227.426C26.5071 226.773 25.0818 231.064 25.4281 233.959C25.7746 236.827 28.0755 238.732 30.6196 239.75C37.3379 242.45 46.4642 241.041 52.5956 237.46C55.3826 235.832 57.8799 233.466 58.7328 230.263C59.0436 229.288 57.5889 228.786 57.328 229.75Z" fill="#9D8A69"/>
</svg>
